<svg width="32" height="32" viewBox="0 0 32 32" fill="none" xmlns="http://www.w3.org/2000/svg">
<path d="M21.4227 18.1333L31.6693 26.916C31.8873 26.4168 31.9999 25.878 32 25.3333V11.3987L21.4227 18.1333Z" fill="#171717"/>
<path d="M16.7173 17.964L31.856 8.32934C31.6343 7.47427 31.1358 6.71664 30.4382 6.17467C29.7407 5.6327 28.8834 5.33687 28 5.33334H4.00001C3.11667 5.33687 2.25934 5.6327 1.56179 6.17467C0.864249 6.71664 0.365726 7.47427 0.144012 8.32934L15.284 17.964C15.4985 18.0996 15.747 18.1715 16.0007 18.1715C16.2544 18.1715 16.5029 18.0996 16.7173 17.964Z" fill="#171717"/>
<path d="M0 11.3987V25.3333C0.000494642 25.8771 0.113058 26.415 0.330667 26.9133L10.5773 18.1333L0 11.3987Z" fill="#171717"/>
<path d="M19.0854 19.6187L18.152 20.2147C17.5093 20.6206 16.7648 20.836 16.0047 20.836C15.2446 20.836 14.5 20.6206 13.8573 20.2147L12.924 19.6173C12.904 19.636 12.896 19.6613 12.876 19.6787L2.15735 28.86C2.72364 29.166 3.35634 29.3286 4.00002 29.3333H28C28.6441 29.3286 29.2772 29.166 29.844 28.86L19.1334 19.6787C19.112 19.6613 19.104 19.636 19.0854 19.6187Z" fill="#171717"/>
</svg>
