<svg width="56" height="56" viewBox="0 0 56 56" fill="none" xmlns="http://www.w3.org/2000/svg">
<circle cx="28" cy="28" r="28" fill="#F28735"/>
<path d="M40.6666 36.0002L31.8095 28.0002M24.1904 28.0002L15.3333 36.0002M14.6666 21.3335L25.5532 28.9541C26.4347 29.5712 26.8755 29.8797 27.355 29.9992C27.7785 30.1048 28.2214 30.1048 28.6449 29.9992C29.1244 29.8797 29.5652 29.5712 30.4467 28.9541L41.3333 21.3335M21.0666 38.6668H34.9333C37.1735 38.6668 38.2936 38.6668 39.1493 38.2309C39.9019 37.8474 40.5138 37.2354 40.8973 36.4828C41.3333 35.6271 41.3333 34.507 41.3333 32.2668V23.7335C41.3333 21.4933 41.3333 20.3732 40.8973 19.5175C40.5138 18.7649 39.9019 18.153 39.1493 17.7695C38.2936 17.3335 37.1735 17.3335 34.9333 17.3335H21.0666C18.8264 17.3335 17.7063 17.3335 16.8507 17.7695C16.098 18.153 15.4861 18.7649 15.1026 19.5175C14.6666 20.3732 14.6666 21.4933 14.6666 23.7335V32.2668C14.6666 34.507 14.6666 35.6271 15.1026 36.4828C15.4861 37.2354 16.098 37.8474 16.8507 38.2309C17.7063 38.6668 18.8264 38.6668 21.0666 38.6668Z" stroke="#171717" stroke-width="2" stroke-linecap="round" stroke-linejoin="round"/>
</svg>
