<svg width="215" height="320" viewBox="0 0 215 320" fill="none" xmlns="http://www.w3.org/2000/svg">
<path d="M174.169 75.0566C181.229 71.9611 189.487 75.185 192.583 82.2453C195.678 89.3056 192.454 97.5636 185.394 100.659C178.334 103.755 170.076 100.531 166.98 93.4704C163.885 86.4101 167.109 78.1521 174.169 75.0566ZM183.831 97.0933C188.93 94.8576 191.253 88.9078 189.017 83.8087C186.781 78.7096 180.831 76.3868 175.732 78.6224C170.633 80.858 168.31 86.8079 170.546 91.907C172.782 97.0061 178.732 99.3289 183.831 97.0933Z" fill="#FACFAE"/>
<path d="M33.8285 168.514L46.3915 129.293C46.4115 129.242 46.4115 129.242 46.4472 129.226C46.5073 129.072 46.583 128.954 46.6587 128.836C46.7344 128.718 46.7901 128.651 46.8301 128.548C46.8658 128.533 46.8501 128.497 46.8858 128.481L152.77 27.8972C153.227 27.4844 154.354 27.245 154.76 27.4921L222.361 51.8442C222.685 52 222.839 52.0601 223.039 52.2271C223.276 52.3785 223.39 52.5412 223.649 52.9378L235.115 79.2847C235.146 79.356 235.126 79.4073 235.157 79.4786L243.85 99.3045L249.912 96.6468C253.192 95.2084 257.075 96.6946 258.529 100.011L269.644 125.364C271.083 128.644 269.596 132.527 266.28 133.981L249.378 141.391C246.098 142.829 242.215 141.343 240.761 138.027L229.646 112.674C228.207 109.394 229.694 105.511 233.01 104.057L240.32 100.852L232.331 82.631L215.892 89.8382L216.815 91.942C218.738 96.3279 216.735 101.457 212.349 103.38L209.568 104.599L262.879 226.193L268.478 223.739C273.22 221.659 278.795 223.806 280.89 228.585L283.313 234.112L306.883 223.778C307.882 223.34 309.01 223.781 309.448 224.779C309.886 225.777 309.445 226.906 308.447 227.344L195.197 276.996C194.198 277.434 193.07 276.994 192.632 275.995C192.195 274.997 192.635 273.868 193.634 273.431L217.168 263.112L214.745 257.585C212.665 252.843 214.812 247.268 219.59 245.173L225.224 242.703L171.913 121.109L169.132 122.328C164.746 124.251 159.617 122.249 157.694 117.863L157.647 117.756L76.9173 153.151L91.1127 185.528L92.2181 185.043C93.6088 184.434 95.1582 184.477 96.5187 185.156C97.8792 185.835 98.8455 187.069 99.1899 188.534L103.626 207.377C104.203 209.76 102.965 212.173 100.719 213.158L96.9745 214.8L99.4759 220.505C104.257 219.387 109.364 221.824 111.412 226.495C113.726 231.772 111.303 237.979 106.026 240.293C100.748 242.606 94.5421 240.183 92.2283 234.906C91.7906 233.908 92.2311 232.779 93.2295 232.341C94.2279 231.904 95.3564 232.344 95.7941 233.343C97.248 236.659 101.146 238.181 104.462 236.727C107.779 235.273 109.3 231.375 107.847 228.058C106.393 224.742 102.494 223.22 99.1782 224.674C98.1798 225.112 97.0513 224.672 96.6136 223.673L93.3931 216.328L89.649 217.969C87.4025 218.954 84.8091 218.178 83.4276 216.19L72.5734 200.161C71.7297 198.915 71.4766 197.368 71.8991 195.908C72.3171 194.534 73.2637 193.396 74.5674 192.782L60.372 160.405L36.4454 170.895C35.7323 171.208 34.9028 171.061 34.3518 170.58C33.8208 170.048 33.5994 169.252 33.8285 168.514ZM156.049 33.729L155.925 67.9636L181.278 56.848L156.049 33.729ZM234.609 107.607C233.289 108.186 232.653 109.74 233.247 111.095L244.363 136.448C244.941 137.767 246.496 138.404 247.851 137.81L264.752 130.399C266.072 129.821 266.708 128.266 266.114 126.911L254.999 101.559C254.42 100.239 252.866 99.6028 251.511 100.197L234.609 107.607ZM214.329 86.2723L230.803 79.0496L220.813 56.2641L204.339 63.4869L214.329 86.2723ZM201.869 57.8529L202.791 59.9567L216.555 53.9221L162.569 34.4417L185.566 55.478L190.38 53.3675C194.766 51.4445 199.946 53.467 201.869 57.8529ZM221.169 248.774C218.388 249.994 217.107 253.276 218.326 256.058L220.749 261.585L279.763 235.711L277.34 230.184C276.121 227.402 272.838 226.121 270.057 227.34L221.169 248.774ZM202.604 178.989L222.68 185.703L231.344 166.388L211.268 159.673L202.604 178.989ZM217.837 135.579L197.76 128.865L189.096 148.18L209.173 154.895L217.837 135.579ZM216.112 209.797L236.188 216.512L244.852 197.196L224.775 190.482L216.112 209.797ZM229.599 240.657L258.375 228.041L238.299 221.326L229.599 240.657ZM234.561 220.074L216.987 214.217L226.977 237.003L234.561 220.074ZM221.054 189.265L203.479 183.409L213.469 206.194L221.054 189.265ZM207.546 158.456L189.972 152.6L199.962 175.386L207.546 158.456ZM194.038 127.648L176.464 121.792L186.454 144.577L194.038 127.648ZM195.665 124.086L203.15 107.414L178.367 118.279L195.665 124.086ZM199.351 125.319L216.926 131.175L206.936 108.389L199.351 125.319ZM212.859 156.127L230.434 161.983L220.444 139.198L212.859 156.127ZM226.367 186.936L243.941 192.792L233.951 170.006L226.367 186.936ZM239.874 217.744L257.449 223.6L247.459 200.815L239.874 217.744ZM147.998 86.1483L160.395 114.425L161.224 116.315C162.287 118.74 165.108 119.841 167.533 118.778L172.097 116.777L206.151 101.847L210.75 99.8299C213.175 98.7668 214.277 95.9457 213.213 93.521L211.509 89.6343L199.956 63.283L198.252 59.3963C197.189 56.9715 194.368 55.8702 191.943 56.9333L148.726 75.8814C146.301 76.9445 145.199 79.7655 146.263 82.1903L147.998 86.1483ZM147.198 72.3L152.047 70.1738L152.155 33.8636L57.6433 123.637L143.65 85.9288L142.697 83.7536C140.789 79.4034 142.812 74.2229 147.198 72.3ZM57.4951 127.954L72.8396 133.087L79.4604 118.323L57.4951 127.954ZM88.9098 114.18L104.254 119.314L110.875 104.55L88.9098 114.18ZM120.324 100.407L135.669 105.54L142.29 90.7766L120.324 100.407ZM146.167 91.6697L139.371 106.808L155.11 112.066L146.167 91.6697ZM153.124 115.488L137.78 110.354L131.159 125.118L153.124 115.488ZM134.093 109.122L115.868 103.041L107.992 120.566L126.217 126.647L134.093 109.122ZM121.745 129.245L106.4 124.112L99.7796 138.876L121.745 129.245ZM102.679 122.895L84.4531 116.814L76.577 134.339L94.8026 140.42L102.679 122.895ZM90.3303 143.019L74.9858 137.885L68.3649 152.649L90.3303 143.019ZM63.9378 158.841L78.1332 191.219L87.5469 187.091L73.3515 154.714L63.9378 158.841ZM75.6609 197.022C75.6165 197.211 75.5432 197.626 75.8378 198.007L86.6919 214.037C87.0178 214.489 87.602 214.658 88.1012 214.439L99.1552 209.592C99.6544 209.374 99.9616 208.814 99.8141 208.283L95.3784 189.44C95.2621 188.98 94.9431 188.738 94.7736 188.642C94.6041 188.546 94.2094 188.422 93.7815 188.609L76.3091 196.27C75.8812 196.457 75.7053 196.832 75.6609 197.022ZM63.0162 154.994L71.264 136.669L52.182 130.283L49.8286 131.315L38.8401 165.594L63.0162 154.994Z" fill="#FACFAE"/>
</svg>
