<svg width="40" height="40" viewBox="0 0 40 40" fill="none" xmlns="http://www.w3.org/2000/svg">
<rect width="40" height="40" fill="#1E1E1E"/>
<g id="Home" clip-path="url(#clip0_0_1)">
<rect width="1920" height="8579" transform="translate(-946 -3490)" fill="white"/>
<g id="Services">
<g clip-path="url(#clip1_0_1)">
<rect x="-886" y="-369" width="1800" height="1442" rx="80" fill="#FCE7D7"/>
<g id="All Services">
<g id="Service 2">
<g id="Text">
<g id="icon">
<path id="Rectangle 16" d="M-15 -3C-15 -9.62742 -9.62742 -15 -3 -15H43C49.6274 -15 55 -9.62742 55 -3V43C55 49.6274 49.6274 55 43 55H-15V-3Z" fill="#F28735"/>
<path id="Rectangle 17" d="M28.9286 65.5V67H24.7857V65.5H20.6429V67H16.5V65.5H12.3571V67H8.21428V65.5H4.07143V67H-0.0714302V65.5H-4.21429V67H-8.35714V65.5H-12.5V67H-16.6429V65.5H-20.7857V67H-24.9286V65.5H-25.5V64.9286H-27V60.7857H-25.5V56.6429H-27V52.5H-25.5V48.3571H-27V44.2143H-25.5V40.0714H-27V35.9286H-25.5V31.7857H-27V27.6429H-25.5V23.5H-27V19.3571H-25.5V15.2143H-27V11.0714H-25.5V9C-25.5 8.29683 -25.4311 7.61125 -25.3001 6.94916L-26.7716 6.65806C-26.4601 5.08372 -25.8407 3.62011 -24.9788 2.33261L-23.7323 3.16709C-22.9653 2.0214 -21.9786 1.03469 -20.8329 0.267668L-21.6674 -0.978785C-20.3799 -1.84074 -18.9163 -2.46014 -17.3419 -2.77159L-17.0508 -1.30011C-16.3888 -1.43109 -15.7032 -1.5 -15 -1.5H-13.0833V-3H-9.25V-1.5H-5.41667V-3H-1.58334V-1.5H2.25V-3H6.08333V-1.5H9.91667V-3H13.75V-1.5H17.5833V-3H21.4167V-1.5H25.25V-3H29.0833V-1.5H31C31.7032 -1.5 32.3888 -1.43109 33.0508 -1.30011L33.3419 -2.77159C34.9163 -2.46014 36.3799 -1.84074 37.6674 -0.978785L36.8329 0.267667C37.9786 1.03469 38.9653 2.0214 39.7323 3.16709L40.9788 2.33261C41.8407 3.62011 42.4601 5.08372 42.7716 6.65806L41.3001 6.94916C41.4311 7.61125 41.5 8.29683 41.5 9V10.9167H43V14.75H41.5V18.5833H43V22.4167H41.5V26.25H43V30.0833H41.5V33.9167H43V37.75H41.5V41.5833H43V45.4167H41.5V49.25H43V53.0833H41.5V55C41.5 55.7032 41.4311 56.3888 41.3001 57.0508L42.7716 57.3419C42.4601 58.9163 41.8407 60.3799 40.9788 61.6674L39.7323 60.8329C38.9653 61.9786 37.9786 62.9653 36.8329 63.7323L37.6674 64.9788C36.3799 65.8407 34.9163 66.4601 33.3419 66.7716L33.0508 65.3001C32.3888 65.4311 31.7032 65.5 31 65.5H28.9286Z" stroke="#F28735" stroke-width="3" stroke-dasharray="4 4"/>
<g id="clipboard-check">
<path id="Icon" d="M26.6667 6.66659C28.2166 6.66659 28.9916 6.66659 29.6274 6.83696C31.3529 7.29929 32.7006 8.64703 33.163 10.3725C33.3334 11.0083 33.3334 11.7833 33.3334 13.3333V28.6666C33.3334 31.4668 33.3334 32.867 32.7884 33.9365C32.309 34.8774 31.5441 35.6423 30.6033 36.1216C29.5337 36.6666 28.1336 36.6666 25.3334 36.6666H14.6667C11.8664 36.6666 10.4663 36.6666 9.39673 36.1216C8.45592 35.6423 7.69102 34.8774 7.21165 33.9365C6.66669 32.867 6.66669 31.4668 6.66669 28.6666V13.3333C6.66669 11.7833 6.66669 11.0083 6.83706 10.3725C7.29939 8.64703 8.64713 7.29929 10.3726 6.83696C11.0084 6.66659 11.7834 6.66659 13.3334 6.66659M15 24.9999L18.3334 28.3333L25.8334 20.8333M16 9.99992H24C24.9334 9.99992 25.4002 9.99992 25.7567 9.81826C26.0703 9.65847 26.3252 9.40351 26.485 9.0899C26.6667 8.73338 26.6667 8.26667 26.6667 7.33325V5.99992C26.6667 5.0665 26.6667 4.59979 26.485 4.24327C26.3252 3.92966 26.0703 3.6747 25.7567 3.51491C25.4002 3.33325 24.9334 3.33325 24 3.33325H16C15.0666 3.33325 14.5999 3.33325 14.2434 3.51491C13.9298 3.6747 13.6748 3.92966 13.515 4.24327C13.3334 4.59979 13.3334 5.0665 13.3334 5.99992V7.33325C13.3334 8.26667 13.3334 8.73338 13.515 9.0899C13.6748 9.40351 13.9298 9.65847 14.2434 9.81826C14.5999 9.99992 15.0666 9.99992 16 9.99992Z" stroke="#171717" stroke-width="3" stroke-linecap="round" stroke-linejoin="round"/>
</g>
</g>
</g>
</g>
</g>
</g>
</g>
</g>
<defs>
<clipPath id="clip0_0_1">
<rect width="1920" height="8579" fill="white" transform="translate(-946 -3490)"/>
</clipPath>
<clipPath id="clip1_0_1">
<rect x="-886" y="-369" width="1800" height="1442" rx="80" fill="white"/>
</clipPath>
</defs>
</svg>
