<svg width="261" height="80" viewBox="0 0 261 80" fill="none" xmlns="http://www.w3.org/2000/svg">
<path d="M24.094 28.0822V66.828L32.6144 58.9331V34.884L45.5168 47.1515V61.1194L52.9417 68.407V45.0866L37.3615 30.8758V16.665L24.094 28.0822Z" fill="#5AA469"/>
<path fill-rule="evenodd" clip-rule="evenodd" d="M13.1604 26.8445C11.4898 28.3728 8.07171 31.4981 7.76372 31.7728L8.20133 34.8387L14.3567 40.2933L20.2123 35.8772L19.0999 31.8003L13.6701 35.1454L44.4296 8.38369L43.9864 16.2865L42.285 16.1911L43.1212 18.671L44.458 18.746L44.3628 20.4437C49.0752 21.1946 43.942 25.7728 43.4373 21.73C42.5937 22.9332 43.6522 24.4184 45.1106 24.5002C46.7564 24.5925 48.9401 21.4304 45.8687 19.6766L45.9163 18.8277L47.2532 18.9027L48.6045 16.5455L46.7815 16.4432L47.3774 5.81903L50.5815 3.03135L50.1362 2.27646L46.6926 2.81324L17.4674 28.3025L13.1604 26.8445ZM44.7156 16.3274L45.1986 7.71464L46.3781 6.68846L45.834 16.3901L44.7156 16.3274Z" fill="#5AA469"/>
<path fill-rule="evenodd" clip-rule="evenodd" d="M22.9985 35.9771L22.5117 36.4693V68.164L22.9985 67.6782V35.9771Z" fill="#5AA469"/>
<path fill-rule="evenodd" clip-rule="evenodd" d="M22.0247 36.7059L21.5378 37.208V69.2572L22.0247 68.7713V36.7059Z" fill="#5AA469"/>
<path fill-rule="evenodd" clip-rule="evenodd" d="M21.051 37.4347L20.5641 37.9505V70.2289L21.051 69.7431V37.4347Z" fill="#5AA469"/>
<path d="M49.5336 25.0458L55.1327 30.1471V43.5077L49.5336 38.6493V25.0458Z" fill="#171717"/>
<path fill-rule="evenodd" clip-rule="evenodd" d="M44.9082 29.2599L49.5336 25.0458V27.475L44.9082 31.4884V29.2599Z" fill="#171717"/>
<path fill-rule="evenodd" clip-rule="evenodd" d="M49.5335 28.6895L44.9081 32.9037V34.5196L45.2471 34.8381L49.5335 31.1187V28.6895Z" fill="#171717"/>
<path fill-rule="evenodd" clip-rule="evenodd" d="M49.5336 32.3334L46.0037 35.5494L47.3151 36.6875L49.5336 34.7626V32.3334Z" fill="#171717"/>
<path d="M37.4839 60.2692L14.7216 75.3302H20.0489V73.8727L37.4839 64.8847L54.9189 73.8727V75.3302H60.4884L37.4839 60.2692Z" fill="#171717"/>
<path d="M34.6837 67.3138L37.1181 66.828V69.2572H34.6837V67.3138Z" fill="#171717"/>
<path d="M37.605 66.828L40.0394 67.3138V69.2572H37.605V66.828Z" fill="#171717"/>
<rect x="34.6837" y="69.743" width="2.43441" height="2.4292" fill="#171717"/>
<rect x="37.605" y="69.743" width="2.43441" height="2.4292" fill="#171717"/>
<path d="M64.6894 79.9447C64.6894 80.4906 52.3069 76.9792 37.0323 76.9792C21.7577 76.9792 9.37524 80.4906 9.37524 79.9447C9.37524 79.3988 21.7577 75.0022 37.0323 75.0022C52.3069 75.0022 64.6894 79.3988 64.6894 79.9447Z" fill="#171717"/>
<path d="M20.7032 6.66688C27.8882 2.88243 36.0621 1.45185 44.0712 2.541L42.2408 4.15344C35.1184 3.49543 29.6298 4.9093 23.254 8.26755C15.7032 12.2447 10.0059 18.7045 6.68176 26.5522C3.35767 34.4 2.85467 43.1532 5.25798 51.3287C7.66131 59.5041 10.8756 66.5992 17.9214 71.4116L17.8382 71.5329L16.3546 72.528C9.24099 67.4898 4.02898 60.2031 1.56995 51.8381C-0.951143 43.262 -0.42349 34.0799 3.0635 25.8476C6.55048 17.6152 12.7824 10.839 20.7032 6.66688Z" fill="#171717"/>
<path d="M78.6637 60.9851V61.6816L82.6709 61.6715C82.8593 61.6715 82.9973 61.6277 83.0848 61.5403C83.1722 61.4461 83.216 61.2543 83.216 60.9649C83.216 60.7361 83.1958 60.5713 83.1554 60.4703C83.115 60.3627 83.0578 60.2954 82.9838 60.2684C82.9098 60.2415 82.8021 60.2281 82.6608 60.2281H77.1799V58.8856H83.2765C83.6736 58.8856 84.0067 58.9865 84.2758 59.1884C84.5517 59.3903 84.6897 59.7335 84.6897 60.218V61.5806C84.6897 61.7892 84.6493 61.9507 84.5685 62.0651C84.9858 62.2536 85.1944 62.5698 85.1944 63.014V64.8005C85.1742 65.5677 84.73 65.9512 83.862 65.9512H77.1799V60.9851H78.6637ZM83.1756 64.6088C83.3708 64.6088 83.5121 64.5617 83.5995 64.4675C83.687 64.3732 83.7308 64.1714 83.7308 63.8618C83.7308 63.5388 83.6837 63.3201 83.5895 63.2057C83.502 63.0846 83.3607 63.024 83.1655 63.024H78.6637V64.6088H83.1756ZM92.1441 60.9044V64.2656C92.1373 64.5818 92.06 64.8678 91.9119 65.1235C91.7639 65.3793 91.5654 65.5811 91.3164 65.7292C91.0674 65.8772 90.7848 65.9512 90.4685 65.9512H87.4707C87.1544 65.9512 86.8718 65.8772 86.6228 65.7292C86.3738 65.5811 86.1753 65.3793 86.0273 65.1235C85.8792 64.8678 85.8018 64.5818 85.7951 64.2656V60.9044H87.2688V63.8215C87.2688 64.0502 87.3092 64.2387 87.3899 64.3867C87.4774 64.5347 87.6389 64.6088 87.8744 64.6088H90.0648C90.3003 64.6088 90.4584 64.5347 90.5392 64.3867C90.6266 64.2387 90.6704 64.0502 90.6704 63.8215V60.9044H92.1441ZM94.228 60.2987H92.7543V58.8856H94.228V60.2987ZM92.7543 65.9512V60.9044H94.228V65.9512H92.7543ZM94.8341 65.9512V58.3809H96.3078V65.9512H94.8341ZM103.263 58.3809V63.9325H101.789V62.2569H98.9529C98.7309 62.2569 98.5795 62.3343 98.4987 62.4891C98.418 62.6371 98.381 62.8424 98.3877 63.1048V63.8215C98.3877 64.0502 98.4281 64.2387 98.5088 64.3867C98.5963 64.5347 98.7578 64.6088 98.9933 64.6088H103.263V65.9512H98.5896C98.2733 65.9512 97.9907 65.8772 97.7417 65.7292C97.4927 65.5811 97.2942 65.3793 97.1462 65.1235C96.9981 64.8678 96.9207 64.5818 96.914 64.2656V62.3377C96.9207 62.055 97.0015 61.8061 97.1562 61.5907C97.3177 61.3687 97.5196 61.2004 97.7619 61.086C98.0109 60.9716 98.2632 60.9144 98.5189 60.9144H101.789V58.3809H103.263ZM105.347 60.2987H103.873V58.8856H105.347V60.2987ZM103.873 65.9512V60.9044H105.347V65.9512H103.873ZM105.953 65.9512V60.9044H107.427V65.9512H105.953ZM110.828 63.0341C110.828 62.7986 110.785 62.6102 110.697 62.4689C110.616 62.3208 110.458 62.2468 110.223 62.2468H108.103V60.9044H110.626C110.943 60.9044 111.225 60.9784 111.474 61.1264C111.723 61.2745 111.922 61.4763 112.07 61.732C112.218 61.9878 112.295 62.2737 112.302 62.59V65.9512H110.828V63.0341ZM119.261 60.9044V66.2843C119.261 66.6006 119.187 66.8866 119.039 67.1423C118.898 67.398 118.699 67.5999 118.444 67.7479C118.188 67.896 117.902 67.97 117.586 67.97H114.992V66.6275H117.182C117.417 66.6275 117.576 66.5535 117.656 66.4055C117.744 66.2641 117.787 66.0757 117.787 65.8402V62.2468H114.951C114.561 62.2468 114.372 62.4958 114.386 62.9938V63.8215C114.386 64.0502 114.426 64.2387 114.507 64.3867C114.594 64.5347 114.756 64.6088 114.992 64.6088H117.111V65.9512H114.588C114.271 65.9512 113.989 65.8772 113.74 65.7292C113.491 65.5811 113.292 65.3793 113.144 65.1235C112.996 64.8678 112.919 64.5818 112.912 64.2656V62.3276C112.919 62.0449 113 61.796 113.154 61.5806C113.316 61.3586 113.518 61.1903 113.76 61.0759C114.009 60.9616 114.261 60.9044 114.517 60.9044H119.261ZM121.892 58.8856H129.896V60.3694H121.892V58.8856ZM125.162 61.1264H126.636V65.9512H125.162V61.1264ZM131.534 63.0442L134.198 62.6001C134.198 62.4924 134.151 62.4083 134.057 62.3478C133.963 62.2872 133.842 62.2569 133.694 62.2569H131.422C131.2 62.2569 131.049 62.3343 130.968 62.4891C130.888 62.6371 130.851 62.8424 130.857 63.1048V63.8215C130.857 64.0502 130.898 64.2387 130.978 64.3867C131.066 64.5347 131.227 64.6088 131.463 64.6088H134.996V65.9512H131.059C130.743 65.9512 130.46 65.8772 130.211 65.7292C129.962 65.5811 129.764 65.3793 129.616 65.1235C129.468 64.8678 129.39 64.5818 129.384 64.2656V62.3377C129.39 62.055 129.471 61.8061 129.626 61.5907C129.787 61.3687 129.989 61.2004 130.231 61.086C130.48 60.9716 130.733 60.9144 130.988 60.9144H134.128C134.383 60.9144 134.632 60.9716 134.875 61.086C135.124 61.2004 135.325 61.3687 135.48 61.5907C135.642 61.8061 135.726 62.055 135.733 62.3377L135.743 62.6102C135.743 63.2427 135.45 63.596 134.864 63.67L131.534 64.1747V63.0442ZM138.382 62.2569C138.16 62.2569 138.008 62.3343 137.927 62.4891C137.847 62.6371 137.81 62.8424 137.816 63.1048V63.8215C137.816 64.0502 137.857 64.2387 137.938 64.3867C138.025 64.5347 138.187 64.6088 138.422 64.6088H140.612C140.848 64.6088 141.006 64.5347 141.087 64.3867C141.174 64.2387 141.218 64.0502 141.218 63.8215H142.692V64.2656C142.685 64.5818 142.608 64.8678 142.46 65.1235C142.311 65.3793 142.113 65.5811 141.864 65.7292C141.615 65.8772 141.332 65.9512 141.016 65.9512H138.018C137.702 65.9512 137.419 65.8772 137.17 65.7292C136.921 65.5811 136.723 65.3793 136.575 65.1235C136.427 64.8678 136.349 64.5818 136.343 64.2656V62.3377C136.349 62.055 136.43 61.8061 136.585 61.5907C136.746 61.3687 136.948 61.2004 137.191 61.086C137.44 60.9716 137.692 60.9144 137.948 60.9144H141.087C141.342 60.9144 141.591 60.9716 141.834 61.086C142.083 61.2004 142.285 61.3687 142.439 61.5907C142.601 61.8061 142.685 62.055 142.692 62.3377V62.9534H141.218C141.205 62.7313 141.154 62.5597 141.067 62.4386C140.986 62.3175 140.848 62.2569 140.653 62.2569H138.382ZM143.302 65.9512V58.3809H144.776V65.9512H143.302ZM148.177 63.0341C148.177 62.7986 148.133 62.6102 148.046 62.4689C147.965 62.3208 147.807 62.2468 147.572 62.2468H145.452V60.9044H147.975C148.292 60.9044 148.574 60.9784 148.823 61.1264C149.072 61.2745 149.271 61.4763 149.419 61.732C149.567 61.9878 149.644 62.2737 149.651 62.59V65.9512H148.177V63.0341ZM150.261 65.9512V60.9044H151.735V65.9512H150.261ZM155.136 63.0341C155.136 62.7986 155.093 62.6102 155.005 62.4689C154.924 62.3208 154.766 62.2468 154.531 62.2468H152.411V60.9044H154.934C155.251 60.9044 155.533 60.9784 155.782 61.1264C156.031 61.2745 156.23 61.4763 156.378 61.732C156.526 61.9878 156.603 62.2737 156.61 62.59V65.9512H155.136V63.0341ZM161.964 60.9144C162.22 60.9144 162.469 60.9716 162.711 61.086C162.96 61.2004 163.162 61.3687 163.317 61.5907C163.478 61.8061 163.562 62.055 163.569 62.3377V64.2656C163.562 64.5818 163.485 64.8678 163.337 65.1235C163.189 65.3793 162.99 65.5811 162.742 65.7292C162.493 65.8772 162.21 65.9512 161.894 65.9512H158.896C158.58 65.9512 158.297 65.8772 158.048 65.7292C157.799 65.5811 157.6 65.3793 157.452 65.1235C157.304 64.8678 157.227 64.5818 157.22 64.2656V62.9332H158.694V63.1048V63.8215C158.694 64.0502 158.734 64.2387 158.815 64.3867C158.903 64.5347 159.064 64.6088 159.3 64.6088H161.49C161.725 64.6088 161.884 64.5347 161.964 64.3867C162.052 64.2387 162.096 64.0502 162.096 63.8215V63.1048C162.102 62.8424 162.065 62.6371 161.984 62.4891C161.904 62.3343 161.752 62.2569 161.53 62.2569H157.22C157.24 61.9878 157.331 61.7522 157.493 61.5504C157.654 61.3418 157.856 61.1836 158.098 61.0759C158.341 60.9683 158.583 60.9144 158.825 60.9144H161.964ZM164.179 65.9512V58.3809H165.653V65.9512H164.179ZM171.003 60.9144C171.259 60.9144 171.508 60.9716 171.75 61.086C171.999 61.2004 172.201 61.3687 172.356 61.5907C172.517 61.8061 172.602 62.055 172.608 62.3377V64.2656C172.602 64.5818 172.524 64.8678 172.376 65.1235C172.228 65.3793 172.03 65.5811 171.781 65.7292C171.532 65.8772 171.249 65.9512 170.933 65.9512H167.935C167.619 65.9512 167.336 65.8772 167.087 65.7292C166.838 65.5811 166.639 65.3793 166.491 65.1235C166.343 64.8678 166.266 64.5818 166.259 64.2656V62.9332H167.733V63.1048V63.8215C167.733 64.0502 167.773 64.2387 167.854 64.3867C167.942 64.5347 168.103 64.6088 168.339 64.6088H170.529C170.764 64.6088 170.923 64.5347 171.003 64.3867C171.091 64.2387 171.135 64.0502 171.135 63.8215V63.1048C171.141 62.8424 171.104 62.6371 171.024 62.4891C170.943 62.3343 170.791 62.2569 170.569 62.2569H166.259C166.279 61.9878 166.37 61.7522 166.532 61.5504C166.693 61.3418 166.895 61.1836 167.137 61.0759C167.38 60.9683 167.622 60.9144 167.864 60.9144H171.003ZM179.567 60.9044V66.2843C179.567 66.6006 179.493 66.8866 179.345 67.1423C179.204 67.398 179.006 67.5999 178.75 67.7479C178.494 67.896 178.208 67.97 177.892 67.97H175.298V66.6275H177.488C177.724 66.6275 177.882 66.5535 177.963 66.4055C178.05 66.2641 178.094 66.0757 178.094 65.8402V62.2468H175.257C174.867 62.2468 174.679 62.4958 174.692 62.9938V63.8215C174.692 64.0502 174.733 64.2387 174.813 64.3867C174.901 64.5347 175.062 64.6088 175.298 64.6088H177.417V65.9512H174.894C174.578 65.9512 174.295 65.8772 174.046 65.7292C173.797 65.5811 173.599 65.3793 173.451 65.1235C173.303 64.8678 173.225 64.5818 173.218 64.2656V62.3276C173.225 62.0449 173.306 61.796 173.461 61.5806C173.622 61.3586 173.824 61.1903 174.066 61.0759C174.315 60.9616 174.568 60.9044 174.823 60.9044H179.567ZM184.962 60.9044H186.527L182.408 67.97H180.844L182.57 65.0125L180.178 60.9044H181.783L183.367 63.6297L184.962 60.9044ZM195.991 62.9736H195.618V63.0543V64.2656C195.618 64.5818 195.543 64.8678 195.395 65.1235C195.254 65.3793 195.056 65.5811 194.8 65.7292C194.544 65.8772 194.258 65.9512 193.942 65.9512H190.833C190.517 65.9512 190.231 65.8772 189.975 65.7292C189.719 65.5811 189.518 65.3793 189.369 65.1235C189.228 64.8678 189.158 64.5818 189.158 64.2656V63.0543C189.158 62.7784 189.232 62.5362 189.38 62.3276C189.534 62.1122 189.733 61.944 189.975 61.8229C189.827 61.621 189.753 61.3956 189.753 61.1466V60.5713C189.753 60.255 189.824 59.969 189.965 59.7133C190.113 59.4576 190.315 59.2557 190.571 59.1077C190.826 58.9596 191.112 58.8856 191.429 58.8856H193.104V58.6736H194.447V60.5107H193.104V60.2281H191.701C191.499 60.2281 191.368 60.2819 191.307 60.3896C191.254 60.4905 191.227 60.6386 191.227 60.8337C191.227 61.0625 191.237 61.2307 191.257 61.3384C191.277 61.4393 191.328 61.5133 191.408 61.5604C191.489 61.6076 191.617 61.6311 191.792 61.6311H192.024V62.9736H191.196C190.981 62.9736 190.833 63.0476 190.752 63.1956C190.672 63.3437 190.631 63.5523 190.631 63.8215C190.631 64.0502 190.672 64.2387 190.752 64.3867C190.84 64.5347 191.001 64.6088 191.237 64.6088H193.538C193.774 64.6088 193.932 64.5347 194.013 64.3867C194.1 64.2387 194.144 64.0502 194.144 63.8215C194.144 63.5523 194.103 63.3437 194.023 63.1956C193.942 63.0476 193.794 62.9736 193.579 62.9736H193.023V61.6311H195.991V62.9736ZM200.225 65.9512C199.97 65.9512 199.721 65.894 199.478 65.7796C199.236 65.6652 199.034 65.5004 198.873 65.285C198.711 65.063 198.627 64.8106 198.62 64.528V63.8114V60.3088C198.627 60.0262 198.711 59.7772 198.873 59.5619C199.034 59.3398 199.236 59.1716 199.478 59.0572C199.721 58.9428 199.97 58.8856 200.225 58.8856H205.212C205.602 58.8856 205.935 58.9865 206.211 59.1884C206.487 59.3903 206.625 59.7335 206.625 60.218V61.3182H205.212V60.8337C205.205 60.6453 205.181 60.5107 205.141 60.4299C205.101 60.3425 205.047 60.2886 204.979 60.2684C204.919 60.2415 204.821 60.2281 204.687 60.2281H200.568C200.42 60.2415 200.309 60.2853 200.235 60.3593C200.161 60.4333 200.118 60.5746 200.104 60.7832C200.104 62.1493 200.101 63.1755 200.094 63.8618C200.094 64.1714 200.138 64.3732 200.225 64.4675C200.313 64.5617 200.451 64.6088 200.639 64.6088H204.687C204.821 64.6088 204.919 64.5987 204.979 64.5785C205.047 64.5516 205.101 64.4977 205.141 64.417C205.181 64.3295 205.205 64.1916 205.212 64.0031V63.3874H206.625V64.6189C206.625 65.1034 206.487 65.4465 206.211 65.6484C205.935 65.8503 205.602 65.9512 205.212 65.9512H200.225ZM211.97 60.9144C212.225 60.9144 212.474 60.9716 212.717 61.086C212.966 61.2004 213.168 61.3687 213.322 61.5907C213.484 61.8061 213.568 62.055 213.575 62.3377V64.2656C213.568 64.5818 213.491 64.8678 213.343 65.1235C213.194 65.3793 212.996 65.5811 212.747 65.7292C212.498 65.8772 212.215 65.9512 211.899 65.9512H208.901C208.585 65.9512 208.302 65.8772 208.053 65.7292C207.804 65.5811 207.606 65.3793 207.458 65.1235C207.31 64.8678 207.232 64.5818 207.226 64.2656V62.9332H208.699V63.1048V63.8215C208.699 64.0502 208.74 64.2387 208.821 64.3867C208.908 64.5347 209.07 64.6088 209.305 64.6088H211.495C211.731 64.6088 211.889 64.5347 211.97 64.3867C212.057 64.2387 212.101 64.0502 212.101 63.8215V63.1048C212.108 62.8424 212.071 62.6371 211.99 62.4891C211.909 62.3343 211.758 62.2569 211.536 62.2569H207.226C207.246 61.9878 207.337 61.7522 207.498 61.5504C207.66 61.3418 207.862 61.1836 208.104 61.0759C208.346 60.9683 208.588 60.9144 208.831 60.9144H211.97ZM214.185 65.9512V60.9044H215.659V65.9512H214.185ZM219.06 63.0341C219.06 62.7986 219.016 62.6102 218.929 62.4689C218.848 62.3208 218.69 62.2468 218.455 62.2468H216.335V60.9044H218.858C219.175 60.9044 219.457 60.9784 219.706 61.1264C219.955 61.2745 220.154 61.4763 220.302 61.732C220.45 61.9878 220.527 62.2737 220.534 62.59V65.9512H219.06V63.0341ZM225.797 62.8121C226.161 62.8121 226.47 62.8861 226.726 63.0341C226.988 63.1822 227.183 63.3773 227.311 63.6196C227.446 63.8618 227.513 64.1175 227.513 64.3867C227.513 64.6559 227.449 64.9116 227.321 65.1538C227.194 65.3893 227.002 65.5811 226.746 65.7292C226.49 65.8772 226.181 65.9512 225.817 65.9512H221.164V64.6088H225.414C225.602 64.6088 225.747 64.5818 225.848 64.528C225.949 64.4675 225.999 64.3968 225.999 64.316C225.999 64.2353 225.945 64.1646 225.838 64.1041C225.73 64.0435 225.582 64.0132 225.394 64.0132H222.84C222.476 64.0132 222.167 63.9392 221.911 63.7912C221.655 63.6431 221.464 63.4513 221.336 63.2158C221.208 62.9803 221.144 62.728 221.144 62.4588C221.144 62.1896 221.208 61.9339 221.336 61.6917C221.47 61.4494 221.666 61.2543 221.921 61.1062C222.184 60.9582 222.497 60.8842 222.86 60.8842H227.14V62.2266H223.264C223.075 62.2266 222.927 62.2569 222.82 62.3175C222.712 62.378 222.658 62.4487 222.658 62.5295C222.658 62.6035 222.709 62.6708 222.81 62.7313C222.91 62.7852 223.055 62.8121 223.244 62.8121H225.797ZM234.472 60.9044V64.2656C234.465 64.5818 234.388 64.8678 234.24 65.1235C234.092 65.3793 233.893 65.5811 233.644 65.7292C233.395 65.8772 233.113 65.9512 232.796 65.9512H229.799C229.482 65.9512 229.2 65.8772 228.951 65.7292C228.702 65.5811 228.503 65.3793 228.355 65.1235C228.207 64.8678 228.13 64.5818 228.123 64.2656V60.9044H229.597V63.8215C229.597 64.0502 229.637 64.2387 229.718 64.3867C229.805 64.5347 229.967 64.6088 230.202 64.6088H232.393C232.628 64.6088 232.786 64.5347 232.867 64.3867C232.954 64.2387 232.998 64.0502 232.998 63.8215V60.9044H234.472ZM235.082 65.9512V58.3809H236.556V65.9512H235.082ZM239.584 64.6088V65.9512H238.838C238.521 65.9512 238.235 65.8772 237.98 65.7292C237.724 65.5811 237.522 65.3793 237.374 65.1235C237.233 64.8678 237.162 64.5818 237.162 64.2656V58.3809H238.636V60.3593H239.332V61.833H238.636V63.8215C238.636 64.0502 238.676 64.2387 238.757 64.3867C238.844 64.5347 239.006 64.6088 239.241 64.6088H239.584ZM246.537 60.9044V65.9512H245.063V62.2468H242.227C241.837 62.2468 241.648 62.4958 241.662 62.9938V63.8215C241.662 64.0502 241.702 64.2387 241.783 64.3867C241.87 64.5347 242.032 64.6088 242.267 64.6088H244.387V65.9512H241.864C241.547 65.9512 241.265 65.8772 241.016 65.7292C240.767 65.5811 240.568 65.3793 240.42 65.1235C240.272 64.8678 240.195 64.5818 240.188 64.2656V62.3276C240.195 62.0449 240.276 61.796 240.43 61.5806C240.592 61.3586 240.794 61.1903 241.036 61.0759C241.285 60.9616 241.537 60.9044 241.793 60.9044H246.537ZM247.147 65.9512V60.9044H248.621V65.9512H247.147ZM252.023 63.0341C252.023 62.7986 251.979 62.6102 251.891 62.4689C251.811 62.3208 251.652 62.2468 251.417 62.2468H249.297V60.9044H251.821C252.137 60.9044 252.42 60.9784 252.669 61.1264C252.918 61.2745 253.116 61.4763 253.264 61.732C253.412 61.9878 253.49 62.2737 253.496 62.59V65.9512H252.023V63.0341ZM256.529 64.6088V65.9512H255.782C255.466 65.9512 255.18 65.8772 254.924 65.7292C254.668 65.5811 254.466 65.3793 254.318 65.1235C254.177 64.8678 254.106 64.5818 254.106 64.2656V58.3809H255.58V60.3593H256.277V61.833H255.58V63.8215C255.58 64.0502 255.621 64.2387 255.701 64.3867C255.789 64.5347 255.95 64.6088 256.186 64.6088H256.529Z" fill="#171717"/>
<path d="M87.5281 17.5009V22.5057L116.324 22.4332C117.678 22.4332 118.669 22.1189 119.298 21.4903C119.927 20.8133 120.241 19.4351 120.241 17.3558C120.241 15.7117 120.096 14.527 119.806 13.8017C119.516 13.028 119.105 12.5444 118.573 12.351C118.041 12.1576 117.267 12.0608 116.252 12.0608H76.8657V2.41383H120.676C123.529 2.41383 125.923 3.13917 127.857 4.58985C129.84 6.04053 130.831 8.50668 130.831 11.9883V21.7804C130.831 23.2794 130.541 24.44 129.96 25.262C132.959 26.616 134.458 28.8887 134.458 32.0802V44.9187C134.312 50.4313 131.121 53.1876 124.883 53.1876H76.8657V17.5009H87.5281ZM119.951 43.5406C121.353 43.5406 122.369 43.2021 122.997 42.5251C123.626 41.8481 123.94 40.3974 123.94 38.173C123.94 35.852 123.602 34.2804 122.925 33.4583C122.296 32.5879 121.281 32.1527 119.878 32.1527H87.5281V43.5406H119.951ZM138.774 2.41383H196.294V13.0763H138.774V2.41383ZM162.275 18.5164H172.865V53.1876H162.275V18.5164ZM212.145 53.1876C210.308 53.1876 208.519 52.7765 206.778 51.9545C205.037 51.1324 203.586 49.9477 202.426 48.4003C201.265 46.8046 200.661 44.9912 200.612 42.9603V37.8104V12.6411C200.661 10.6102 201.265 8.821 202.426 7.27361C203.586 5.67786 205.037 4.46896 206.778 3.64691C208.519 2.82486 210.308 2.41383 212.145 2.41383H247.977C250.782 2.41383 253.175 3.13917 255.158 4.58985C257.141 6.04053 258.132 8.50668 258.132 11.9883V19.8945H247.977V16.4129C247.929 15.0589 247.759 14.0918 247.469 13.5115C247.179 12.8829 246.792 12.496 246.309 12.351C245.874 12.1576 245.172 12.0608 244.205 12.0608H214.611C213.548 12.1576 212.75 12.4719 212.218 13.0038C211.686 13.5357 211.372 14.5512 211.275 16.0502C211.275 25.8665 211.251 33.2407 211.202 38.173C211.202 40.3974 211.517 41.8481 212.145 42.5251C212.774 43.2021 213.765 43.5406 215.119 43.5406H244.205C245.172 43.5406 245.874 43.468 246.309 43.323C246.792 43.1295 247.179 42.7427 247.469 42.1624C247.759 41.5338 247.929 40.5425 247.977 39.1885V34.764H258.132V43.6131C258.132 47.0947 257.141 49.5609 255.158 51.0115C253.175 52.4622 250.782 53.1876 247.977 53.1876H212.145Z" fill="#5AA469"/>
<path d="M108.101 74.7795L109.775 71.627H111.151L108.738 75.9604V79H107.423V75.9604L105 71.627H106.427L108.101 74.7795ZM116.836 76.3096C116.836 77.9834 115.758 79.113 114.238 79.113C112.718 79.113 111.64 77.9834 111.64 76.3096C111.64 74.6358 112.718 73.5062 114.238 73.5062C115.758 73.5062 116.836 74.6358 116.836 76.3096ZM112.882 76.3096C112.882 77.4083 113.406 78.0758 114.238 78.0758C115.07 78.0758 115.593 77.4083 115.593 76.3096C115.593 75.2108 115.07 74.5434 114.238 74.5434C113.406 74.5434 112.882 75.2108 112.882 76.3096ZM122.634 73.6089V79H121.401V78.4249C121.093 78.7844 120.631 79.113 119.933 79.113C118.803 79.113 118.105 78.3428 118.105 77.1824V73.6089H119.337V76.9154C119.337 77.5726 119.625 77.9937 120.292 77.9937C120.847 77.9937 121.401 77.5829 121.401 76.8128V73.6089H122.634ZM124.037 79V77.9526H125.464V74.6563H124.037V73.6089H126.676V74.4817C127.014 73.8656 127.744 73.5062 128.493 73.5062C128.873 73.5062 129.14 73.5678 129.335 73.65V74.8617C129.058 74.7693 128.801 74.7077 128.37 74.7077C127.538 74.7077 126.676 75.2416 126.676 76.1556V77.9526H128.606V79H124.037ZM135.797 77.5829L136.813 76.7306C137.327 77.5316 138.097 78.0039 138.939 78.0039C139.771 78.0039 140.397 77.6137 140.397 76.9052C140.397 76.1556 139.627 76.0426 138.528 75.7756C137.419 75.5086 136.228 75.1903 136.228 73.7527C136.228 72.3869 137.398 71.5141 138.887 71.5141C140.15 71.5141 141.136 72.0891 141.629 72.8593L140.674 73.6808C140.263 73.0441 139.709 72.6128 138.846 72.6128C138.056 72.6128 137.501 73.0133 137.501 73.6192C137.501 74.2661 138.076 74.4099 139.072 74.6358C140.263 74.9028 141.691 75.1698 141.691 76.7717C141.691 78.2196 140.417 79.113 138.898 79.113C137.635 79.113 136.372 78.5276 135.797 77.5829ZM144.295 79.0924C143.227 79.0924 142.416 78.466 142.416 77.5008C142.416 76.4739 143.207 76.0118 144.285 75.8064L145.876 75.4984V75.4059C145.876 74.8925 145.568 74.5639 144.88 74.5639C144.274 74.5639 143.895 74.8514 143.741 75.3751L142.59 75.0979C142.868 74.2045 143.689 73.5062 144.932 73.5062C146.267 73.5062 147.078 74.1223 147.078 75.3649V77.6856C147.078 77.9937 147.222 78.0861 147.571 78.045V79C146.647 79.1027 146.164 78.9281 145.969 78.4866C145.609 78.8768 145.024 79.0924 144.295 79.0924ZM145.876 77.1003V76.4328L144.603 76.6793C144.069 76.7819 143.648 76.9668 143.648 77.4494C143.648 77.8704 143.977 78.1066 144.47 78.1066C145.158 78.1066 145.876 77.7575 145.876 77.1003ZM153.369 79H148.624V77.9526H150.185V74.6563H148.624V73.6089H150.185C150.185 72.1302 151.212 71.5141 152.516 71.5141C152.999 71.5141 153.451 71.5757 153.779 71.6476V72.7155C153.41 72.6642 153.071 72.6026 152.557 72.6026C151.787 72.6026 151.418 72.9106 151.418 73.6089H153.779V74.6563H151.418V77.9526H153.369V79ZM157.472 79.113C155.87 79.113 154.741 77.9731 154.741 76.3096C154.741 74.7282 155.86 73.5062 157.421 73.5062C159.053 73.5062 159.916 74.6871 159.916 76.1658V76.5766H155.942C156.045 77.5008 156.64 78.0655 157.482 78.0655C158.15 78.0655 158.663 77.7575 158.848 77.203L159.885 77.6034C159.495 78.5482 158.602 79.113 157.472 79.113ZM157.421 74.5434C156.722 74.5434 156.199 74.9233 156.014 75.6524H158.674C158.663 75.0568 158.263 74.5434 157.421 74.5434ZM172.272 77.8499V79H167.035V77.8499H168.996V72.7771H167.035V71.627H172.272V72.7771H170.31V77.8499H172.272ZM173.572 79V73.6089H174.804V74.184C175.112 73.8245 175.595 73.5062 176.293 73.5062C177.423 73.5062 178.1 74.2866 178.1 75.447V79H176.868V75.8064C176.868 75.1389 176.601 74.6563 175.923 74.6563C175.369 74.6563 174.804 75.0671 174.804 75.8372V79H173.572ZM179.729 79V73.6089H180.961V74.184C181.269 73.8245 181.752 73.5062 182.45 73.5062C183.58 73.5062 184.258 74.2866 184.258 75.447V79H183.025V75.8064C183.025 75.1389 182.758 74.6563 182.081 74.6563C181.526 74.6563 180.961 75.0671 180.961 75.8372V79H179.729ZM190.723 76.3096C190.723 77.9834 189.645 79.113 188.125 79.113C186.605 79.113 185.527 77.9834 185.527 76.3096C185.527 74.6358 186.605 73.5062 188.125 73.5062C189.645 73.5062 190.723 74.6358 190.723 76.3096ZM186.769 76.3096C186.769 77.4083 187.293 78.0758 188.125 78.0758C188.957 78.0758 189.48 77.4083 189.48 76.3096C189.48 75.2108 188.957 74.5434 188.125 74.5434C187.293 74.5434 186.769 75.2108 186.769 76.3096ZM194.898 79H193.656L191.479 73.6089H192.773L194.292 77.5521L195.802 73.6089H197.075L194.898 79ZM199.71 79.0924C198.642 79.0924 197.831 78.466 197.831 77.5008C197.831 76.4739 198.622 76.0118 199.7 75.8064L201.292 75.4984V75.4059C201.292 74.8925 200.984 74.5639 200.296 74.5639C199.69 74.5639 199.31 74.8514 199.156 75.3751L198.006 75.0979C198.283 74.2045 199.104 73.5062 200.347 73.5062C201.682 73.5062 202.493 74.1223 202.493 75.3649V77.6856C202.493 77.9937 202.637 78.0861 202.986 78.045V79C202.062 79.1027 201.579 78.9281 201.384 78.4866C201.025 78.8768 200.439 79.0924 199.71 79.0924ZM201.292 77.1003V76.4328L200.018 76.6793C199.484 76.7819 199.063 76.9668 199.063 77.4494C199.063 77.8704 199.392 78.1066 199.885 78.1066C200.573 78.1066 201.292 77.7575 201.292 77.1003ZM205.313 77.1516V74.6563H203.855V73.6089H205.313V72.0275H206.525V73.6089H208.999V74.6563H206.525V77.0387C206.525 77.7369 206.905 77.9629 207.726 77.9629C208.178 77.9629 208.599 77.891 208.979 77.7883V78.887C208.619 78.9897 208.044 79.0719 207.5 79.0719C206.35 79.0719 205.313 78.5995 205.313 77.1516ZM212.292 72.8901V71.627H213.565V72.8901H212.292ZM210.484 79V77.9526H212.312V74.6563H210.484V73.6089H213.544V77.9526H215.372V79H210.484ZM221.509 76.3096C221.509 77.9834 220.431 79.113 218.911 79.113C217.391 79.113 216.313 77.9834 216.313 76.3096C216.313 74.6358 217.391 73.5062 218.911 73.5062C220.431 73.5062 221.509 74.6358 221.509 76.3096ZM217.556 76.3096C217.556 77.4083 218.079 78.0758 218.911 78.0758C219.743 78.0758 220.267 77.4083 220.267 76.3096C220.267 75.2108 219.743 74.5434 218.911 74.5434C218.079 74.5434 217.556 75.2108 217.556 76.3096ZM222.83 79V73.6089H224.062V74.184C224.37 73.8245 224.853 73.5062 225.551 73.5062C226.68 73.5062 227.358 74.2866 227.358 75.447V79H226.126V75.8064C226.126 75.1389 225.859 74.6563 225.181 74.6563C224.627 74.6563 224.062 75.0671 224.062 75.8372V79H222.83Z" fill="#5AA469"/>
<path d="M76.8772 76.2418L102.851 76.2418" stroke="#5AA469" stroke-width="1.20809" stroke-linecap="round"/>
<path d="M230.909 76.2418L256.883 76.2418" stroke="#5AA469" stroke-width="1.20809" stroke-linecap="round"/>
</svg>
