<svg width="40" height="40" viewBox="0 0 40 40" fill="none" xmlns="http://www.w3.org/2000/svg">
<path d="M33.3333 20.8333V11.3333C33.3333 8.53299 33.3333 7.13286 32.7884 6.0633C32.309 5.12249 31.5441 4.35759 30.6033 3.87822C29.5337 3.33325 28.1336 3.33325 25.3333 3.33325H14.6667C11.8664 3.33325 10.4663 3.33325 9.3967 3.87822C8.45589 4.35759 7.69099 5.12249 7.21162 6.0633C6.66666 7.13286 6.66666 8.53299 6.66666 11.3333V28.6666C6.66666 31.4668 6.66666 32.867 7.21162 33.9365C7.69099 34.8774 8.45589 35.6423 9.3967 36.1216C10.4663 36.6666 11.8664 36.6666 14.6667 36.6666H20M23.3333 18.3333H13.3333M16.6667 24.9999H13.3333M26.6667 11.6666H13.3333M24.1667 31.6666L27.5 34.9999L35 27.4999" stroke="#171717" stroke-width="3" stroke-linecap="round" stroke-linejoin="round"/>
</svg>
