<svg width="40" height="40" viewBox="0 0 40 40" fill="none" xmlns="http://www.w3.org/2000/svg">
<path d="M18.625 22.8407H17.125C17.125 23.4198 17.4583 23.9472 17.9814 24.1956L18.625 22.8407ZM12.25 22.8407L12.8937 24.1956C13.4167 23.9471 13.75 23.4198 13.75 22.8407H12.25ZM17.125 6.1875V22.8407H20.125V6.1875H17.125ZM15.4375 4.5C16.3695 4.5 17.125 5.25552 17.125 6.1875H20.125C20.125 3.59867 18.0264 1.5 15.4375 1.5V4.5ZM13.75 6.1875C13.75 5.25552 14.5055 4.5 15.4375 4.5V1.5C12.8487 1.5 10.75 3.59866 10.75 6.1875H13.75ZM13.75 22.8407V6.1875H10.75V22.8407H13.75ZM9.50001 29.5625C9.50001 27.1962 10.8842 25.1502 12.8937 24.1956L11.6064 21.4858C8.59033 22.9186 6.50001 25.9949 6.50001 29.5625H9.50001ZM15.4375 35.5C12.1583 35.5 9.50001 32.8417 9.50001 29.5625H6.50001C6.50001 34.4985 10.5015 38.5 15.4375 38.5V35.5ZM21.375 29.5625C21.375 32.8417 18.7167 35.5 15.4375 35.5V38.5C20.3736 38.5 24.375 34.4985 24.375 29.5625H21.375ZM17.9814 24.1956C19.9908 25.1502 21.375 27.1962 21.375 29.5625H24.375C24.375 25.995 22.2847 22.9186 19.2687 21.4858L17.9814 24.1956Z" fill="#171717"/>
<path d="M15.4375 30.625V26.375" stroke="#171717" stroke-width="3" stroke-linecap="round" stroke-linejoin="round"/>
<path d="M22.875 20H27.125" stroke="#171717" stroke-width="3" stroke-linecap="round" stroke-linejoin="round"/>
<path d="M22.875 15.75H27.125" stroke="#171717" stroke-width="3" stroke-linecap="round" stroke-linejoin="round"/>
<path d="M22.875 11.5H27.125" stroke="#171717" stroke-width="3" stroke-linecap="round" stroke-linejoin="round"/>
<path d="M22.875 7.25H31.375" stroke="#171717" stroke-width="3" stroke-linecap="round" stroke-linejoin="round"/>
</svg>
