<svg width="179" height="243" viewBox="0 0 179 243" fill="none" xmlns="http://www.w3.org/2000/svg">
<g clip-path="url(#clip0_194_180)">
<path d="M-26.3793 167.237C-27.7616 166.918 -28.6217 165.542 -28.3029 164.16C-26.3354 155.63 -31.672 147.093 -40.2016 145.126C-48.7313 143.158 -57.268 148.495 -59.2355 157.025C-59.5543 158.407 -60.9302 159.267 -62.3125 158.948C-63.6948 158.629 -64.555 157.253 -64.2361 155.871L-40.781 54.1864C-38.1775 42.8992 -26.8803 35.8369 -15.5931 38.4405C-4.30591 41.044 2.75641 52.3413 0.152851 63.6284L-23.3022 165.313C-23.6211 166.695 -24.997 167.556 -26.3793 167.237ZM-39.0482 140.125C-32.8795 141.548 -27.9687 145.57 -25.214 150.769L-4.8478 62.475C-2.8803 53.9453 -8.21688 45.4086 -16.7466 43.4411C-25.2762 41.4736 -33.8129 46.8102 -35.7804 55.3399L-56.1466 143.634C-51.3932 140.167 -45.2168 138.702 -39.0482 140.125Z" fill="#FACFAE"/>
<path d="M101.779 215.721C100.397 215.402 99.5369 214.026 99.8558 212.644L126.878 95.4928L-0.423882 66.1287L-23.3022 165.313C-23.6211 166.695 -24.997 167.555 -26.3793 167.237C-27.7616 166.918 -28.6217 165.542 -28.3029 164.16C-26.3354 155.63 -31.672 147.093 -40.2016 145.126C-48.7313 143.158 -57.268 148.495 -59.2355 157.024C-61.203 165.554 -55.8664 174.091 -47.3367 176.058L88.6345 207.422C90.0169 207.741 90.877 209.117 90.5581 210.499C90.2393 211.881 88.8634 212.742 87.4811 212.423L-48.4902 181.059C-59.7738 178.456 -66.8397 167.158 -64.2361 155.871C-61.6326 144.584 -50.3318 137.522 -39.0482 140.125C-32.8795 141.548 -27.9687 145.57 -25.214 150.769L-4.8478 62.4749C-4.52894 61.0926 -3.15306 60.2325 -1.77074 60.5513L130.532 91.0689C131.914 91.3878 132.775 92.7637 132.456 94.146L104.856 213.797C104.538 215.18 103.162 216.04 101.779 215.721Z" fill="#FACFAE"/>
<path d="M25.5327 115.386L1.09021 109.748C-0.29211 109.429 -1.15223 108.053 -0.833375 106.671L4.80464 82.2284C5.12349 80.846 6.49938 79.9859 7.8817 80.3048L32.3242 85.9428C33.7065 86.2616 34.5666 87.6375 34.2478 89.0198L28.6097 113.462C28.2909 114.845 26.9114 115.704 25.5327 115.386ZM4.74401 105.324L24.1858 109.809L28.6704 90.3667L9.22855 85.8822L4.74401 105.324Z" fill="#FACFAE"/>
<path d="M32.6784 181.006L14.1653 176.736C12.783 176.417 11.9229 175.041 12.2417 173.659C12.5606 172.276 13.9364 171.416 15.3188 171.735L31.3316 175.429L40.6961 134.83L0.0979917 125.466L-9.26657 166.064L-5.93042 166.834C-4.5481 167.152 -3.68798 168.528 -4.00683 169.911C-4.32568 171.293 -5.70157 172.153 -7.08389 171.834L-12.9204 170.488C-14.3027 170.169 -15.1628 168.793 -14.844 167.411L-4.32592 121.812C-4.00707 120.43 -2.63118 119.57 -1.24886 119.889L44.3499 130.407C45.7322 130.725 46.5924 132.101 46.2735 133.484L35.7555 179.082C35.4374 180.461 34.0607 181.325 32.6784 181.006Z" fill="#FACFAE"/>
<path d="M2.35662 174.012C1.69582 173.859 1.11468 173.443 0.757441 172.872C0.67033 172.727 0.592012 172.578 0.534847 172.418C0.476859 172.261 0.43123 172.1 0.402364 171.932C0.376246 171.768 0.366063 171.6 0.370992 171.432C0.372349 171.263 0.39596 171.095 0.433036 170.935C0.470936 170.77 0.523125 170.609 0.59592 170.457C0.665143 170.304 0.74783 170.157 0.843156 170.021C0.942054 169.886 1.05442 169.758 1.17502 169.642C1.29563 169.527 1.43245 169.423 1.57311 169.335C2.14539 168.975 2.8493 168.859 3.5101 169.011C4.16733 169.163 4.7493 169.575 5.10928 170.151C5.19722 170.292 5.27115 170.444 5.33271 170.601C5.3907 170.758 5.4355 170.922 5.46162 171.086C5.4913 171.251 5.50149 171.419 5.49656 171.587C5.49163 171.755 5.47159 171.924 5.43369 172.088C5.39661 172.249 5.34085 172.409 5.27163 172.562C5.20241 172.716 5.11972 172.862 5.02082 172.997C4.92467 173.137 4.81314 173.262 4.69253 173.377C4.56753 173.495 4.4351 173.596 4.29361 173.687C3.71859 174.044 3.01385 174.163 2.35662 174.012Z" fill="#FACFAE"/>
<path d="M100.314 132.635L35.784 117.751C34.4017 117.432 33.5416 116.056 33.8604 114.673L39.4984 90.231C39.8173 88.8487 41.1932 87.9886 42.5755 88.3074L74.151 95.5908C75.5334 95.9097 76.3935 97.2856 76.0746 98.6679C75.7558 100.05 74.3799 100.91 72.9976 100.591L43.9224 93.8848L39.4378 113.327L98.967 127.058L103.452 107.616L91.9072 104.953C90.5248 104.634 89.6647 103.259 89.9836 101.876C90.3024 100.494 91.6783 99.6337 93.0606 99.9526L107.105 103.192C108.488 103.511 109.348 104.887 109.029 106.269L103.391 130.712C103.072 132.094 101.696 132.954 100.314 132.635Z" fill="#FACFAE"/>
<path d="M81.8765 102.643C81.7122 102.605 81.552 102.55 81.3987 102.48C81.2453 102.411 81.0989 102.329 80.9637 102.23C80.8277 102.134 80.6993 102.022 80.5842 101.901C80.4699 101.777 80.3652 101.644 80.2773 101.503C80.1866 101.358 80.1118 101.209 80.0547 101.049C79.9931 100.892 79.9511 100.732 79.9214 100.567C79.8961 100.4 79.8823 100.231 79.8864 100.066C79.8922 99.8946 79.9122 99.7262 79.9493 99.5654C79.9872 99.4011 80.043 99.2409 80.1122 99.0876C80.1814 98.9343 80.2677 98.7887 80.363 98.6527C80.4619 98.5175 80.5707 98.3883 80.6949 98.274C80.8155 98.1589 80.9487 98.0542 81.0929 97.9671C81.2336 97.8791 81.3869 97.8016 81.5432 97.7436C81.6996 97.6857 81.8641 97.6409 82.029 97.6112C82.193 97.585 82.3609 97.5749 82.5291 97.5798C82.8662 97.5861 83.1984 97.6627 83.5042 97.8047C83.6575 97.8739 83.8039 97.9566 83.94 98.052C84.0751 98.1509 84.2035 98.2632 84.3186 98.3838C84.4337 98.5044 84.5376 98.6412 84.6256 98.7819C84.7171 98.9234 84.791 99.0759 84.8525 99.233C84.9105 99.3894 84.9518 99.5531 84.9814 99.718C85.0076 99.882 85.0213 100.051 85.0164 100.219C85.0115 100.387 84.9879 100.555 84.95 100.719C84.9129 100.88 84.8607 101.041 84.7906 101.198C84.7222 101.347 84.636 101.493 84.5398 101.633C84.4409 101.768 84.333 101.893 84.2124 102.008C84.0874 102.126 83.9549 102.227 83.8099 102.318C83.6692 102.406 83.5167 102.48 83.3596 102.542C83.2033 102.599 83.0387 102.644 82.8746 102.67C82.7098 102.7 82.5419 102.71 82.3738 102.705C82.2056 102.7 82.0372 102.68 81.8765 102.643Z" fill="#FACFAE"/>
<path d="M61.5881 188.92L47.9077 185.764C46.5254 185.445 45.6653 184.069 45.9841 182.687L56.7749 135.906C57.0937 134.524 58.4696 133.663 59.8519 133.982L73.5323 137.138C74.9146 137.457 75.7747 138.833 75.4559 140.215L64.6643 187C64.3463 188.378 62.9704 189.238 61.5881 188.92ZM51.5651 181.341L60.2448 183.343L69.8821 141.563L61.2024 139.56L51.5651 181.341Z" fill="#FACFAE"/>
<path d="M86.0305 194.558L72.3502 191.402C70.9678 191.083 70.1077 189.707 70.4266 188.325L81.2173 141.544C81.5362 140.162 82.9121 139.302 84.2944 139.62L97.9747 142.776C99.3571 143.095 100.217 144.471 99.8983 145.853L89.1068 192.638C88.7887 194.016 87.4128 194.877 86.0305 194.558ZM76.004 186.978L84.6837 188.98L94.3209 147.2L85.6412 145.198L76.004 186.978Z" fill="#FACFAE"/>
</g>
<defs>
<clipPath id="clip0_194_180">
<rect width="201.667" height="201.667" fill="white" transform="translate(-18.2546 0.777832) rotate(12.9889)"/>
</clipPath>
</defs>
</svg>
