<svg width="40" height="40" viewBox="0 0 40 40" fill="none" xmlns="http://www.w3.org/2000/svg">
<path d="M20 29.9999C27.3638 29.9999 33.3333 24.0304 33.3333 16.6666C33.3333 9.30279 27.3638 3.33325 20 3.33325C12.6362 3.33325 6.66663 9.30279 6.66663 16.6666C6.66663 24.0304 12.6362 29.9999 20 29.9999ZM20 29.9999V36.6666M20 36.6666H11.6666M20 36.6666H28.3333M25 16.6666C25 19.428 22.7614 21.6666 20 21.6666C17.2385 21.6666 15 19.428 15 16.6666C15 13.9052 17.2385 11.6666 20 11.6666C22.7614 11.6666 25 13.9052 25 16.6666Z" stroke="#171717" stroke-width="3" stroke-linecap="round" stroke-linejoin="round"/>
</svg>
