<svg width="40" height="40" viewBox="0 0 40 40" fill="none" xmlns="http://www.w3.org/2000/svg">
<path d="M22.5491 13.9197C21.5951 14.5998 20.4276 14.9999 19.1666 14.9999C15.945 14.9999 13.3333 12.3882 13.3333 9.16659C13.3333 5.94492 15.945 3.33325 19.1666 3.33325C21.255 3.33325 23.087 4.43061 24.1175 6.08016M9.99998 33.4785H14.3505C14.9177 33.4785 15.4815 33.546 16.0313 33.681L20.6281 34.7981C21.6256 35.041 22.6646 35.0647 23.6724 34.8689L28.7549 33.8801C30.0976 33.6186 31.3326 32.9757 32.3005 32.0341L35.8965 28.5361C36.9234 27.5389 36.9234 25.9206 35.8965 24.9217C34.9719 24.0223 33.5079 23.9211 32.4619 24.6838L28.271 27.7413C27.6708 28.1801 26.9405 28.4163 26.1894 28.4163H22.1425L24.7184 28.4162C26.1703 28.4162 27.3464 27.2721 27.3464 25.8598V25.3485C27.3464 24.1758 26.5259 23.1532 25.3568 22.8697L21.381 21.9028C20.7339 21.7459 20.0713 21.6666 19.4052 21.6666C17.7972 21.6666 14.8865 22.9979 14.8865 22.9979L9.99998 25.0414M33.3333 10.8333C33.3333 14.0549 30.7216 16.6666 27.5 16.6666C24.2783 16.6666 21.6666 14.0549 21.6666 10.8333C21.6666 7.61159 24.2783 4.99992 27.5 4.99992C30.7216 4.99992 33.3333 7.61159 33.3333 10.8333ZM3.33331 24.3333L3.33331 33.9999C3.33331 34.9333 3.33331 35.4 3.51497 35.7566C3.67476 36.0702 3.92973 36.3251 4.24333 36.4849C4.59985 36.6666 5.06656 36.6666 5.99998 36.6666H7.33331C8.26673 36.6666 8.73344 36.6666 9.08996 36.4849C9.40357 36.3251 9.65854 36.0702 9.81832 35.7566C9.99998 35.4001 9.99998 34.9333 9.99998 33.9999V24.3333C9.99998 23.3998 9.99998 22.9331 9.81832 22.5766C9.65854 22.263 9.40357 22.008 9.08996 21.8482C8.73344 21.6666 8.26673 21.6666 7.33331 21.6666L5.99998 21.6666C5.06656 21.6666 4.59985 21.6666 4.24333 21.8482C3.92973 22.008 3.67476 22.263 3.51497 22.5766C3.33331 22.9331 3.33331 23.3998 3.33331 24.3333Z" stroke="#171717" stroke-width="3" stroke-linecap="round" stroke-linejoin="round"/>
</svg>
