<svg width="40" height="40" viewBox="0 0 40 40" fill="none" xmlns="http://www.w3.org/2000/svg">
<path d="M20 26.6667V35M20 26.6667L30 35M20 26.6667L9.99998 35M35 5V18.6667C35 21.4669 35 22.8671 34.455 23.9366C33.9756 24.8774 33.2107 25.6423 32.2699 26.1217C31.2004 26.6667 29.8002 26.6667 27 26.6667H13C10.1997 26.6667 8.79959 26.6667 7.73003 26.1217C6.78922 25.6423 6.02431 24.8774 5.54495 23.9366C4.99998 22.8671 4.99998 21.4669 4.99998 18.6667V5M13.3333 15V20M20 11.6667V20M26.6666 18.3333V20M36.6666 5H3.33331" stroke="#171717" stroke-width="3" stroke-linecap="round" stroke-linejoin="round"/>
</svg>
