<svg width="261" height="80" viewBox="0 0 261 80" fill="none" xmlns="http://www.w3.org/2000/svg">
<path d="M24.094 28.0823V66.8281L32.6144 58.9332V34.8841L45.5168 47.1515V61.1194L52.9417 68.407V45.0867L37.3615 30.8759V16.665L24.094 28.0823Z" fill="white"/>
<path fill-rule="evenodd" clip-rule="evenodd" d="M13.1604 26.8445C11.4898 28.3728 8.07171 31.4981 7.76372 31.7728L8.20133 34.8387L14.3567 40.2933L20.2123 35.8772L19.0999 31.8004L13.6701 35.1454L44.4296 8.38369L43.9864 16.2865L42.285 16.1911L43.1212 18.671L44.458 18.746L44.3628 20.4437C49.0752 21.1946 43.942 25.7728 43.4373 21.73C42.5937 22.9332 43.6522 24.4184 45.1106 24.5002C46.7564 24.5925 48.9401 21.4304 45.8687 19.6766L45.9163 18.8277L47.2532 18.9027L48.6045 16.5455L46.7815 16.4432L47.3774 5.81903L50.5815 3.03135L50.1362 2.27646L46.6926 2.81324L17.4674 28.3025L13.1604 26.8445ZM44.7156 16.3274L45.1986 7.71464L46.3781 6.68846L45.834 16.3901L44.7156 16.3274Z" fill="white"/>
<path fill-rule="evenodd" clip-rule="evenodd" d="M22.9986 35.9771L22.5117 36.4693V68.164L22.9986 67.6781V35.9771Z" fill="white"/>
<path fill-rule="evenodd" clip-rule="evenodd" d="M22.0248 36.7061L21.5379 37.2082V69.2574L22.0248 68.7715V36.7061Z" fill="white"/>
<path fill-rule="evenodd" clip-rule="evenodd" d="M21.0511 37.4346L20.5642 37.9504V70.2288L21.0511 69.743V37.4346Z" fill="white"/>
<path d="M49.5336 25.0459L55.1327 30.1472V43.5078L49.5336 38.6494V25.0459Z" fill="white"/>
<path fill-rule="evenodd" clip-rule="evenodd" d="M44.9082 29.26L49.5336 25.0459V27.4751L44.9082 31.4886V29.26Z" fill="white"/>
<path fill-rule="evenodd" clip-rule="evenodd" d="M49.5335 28.6895L44.9082 32.9036V34.5195L45.2471 34.838L49.5335 31.1187V28.6895Z" fill="white"/>
<path fill-rule="evenodd" clip-rule="evenodd" d="M49.5336 32.3335L46.0037 35.5495L47.3151 36.6877L49.5336 34.7627V32.3335Z" fill="white"/>
<path d="M37.4839 60.269L14.7215 75.3301H20.0489V73.8726L37.4839 64.8845L54.9189 73.8726V75.3301H60.4884L37.4839 60.269Z" fill="white"/>
<path d="M34.6837 67.314L37.1181 66.8281V69.2573H34.6837V67.314Z" fill="white"/>
<path d="M37.605 66.8281L40.0394 67.314V69.2573H37.605V66.8281Z" fill="white"/>
<rect x="34.6837" y="69.7432" width="2.43441" height="2.4292" fill="white"/>
<rect x="37.605" y="69.7432" width="2.43441" height="2.4292" fill="white"/>
<path d="M64.6894 79.9445C64.6894 80.4904 52.3069 76.979 37.0323 76.979C21.7578 76.979 9.37527 80.4904 9.37527 79.9445C9.37527 79.3985 21.7578 75.002 37.0323 75.002C52.3069 75.002 64.6894 79.3985 64.6894 79.9445Z" fill="white"/>
<path d="M20.7032 6.6667C27.8882 2.88224 36.0621 1.45167 44.0712 2.54081L42.2408 4.15326C35.1184 3.49525 29.6298 4.90912 23.254 8.26736C15.7032 12.2446 10.0059 18.7043 6.68176 26.552C3.35767 34.3998 2.85467 43.153 5.25798 51.3285C7.66131 59.504 10.8756 66.599 17.9214 71.4114L17.8382 71.5327L16.3546 72.5278C9.24099 67.4897 4.02898 60.2029 1.56995 51.8379C-0.951143 43.2618 -0.42349 34.0797 3.0635 25.8474C6.55048 17.6151 12.7824 10.8388 20.7032 6.6667Z" fill="white"/>
<path d="M78.6637 60.985V61.6815L82.6709 61.6714C82.8593 61.6714 82.9973 61.6277 83.0848 61.5402C83.1722 61.446 83.216 61.2542 83.216 60.9649C83.216 60.7361 83.1958 60.5712 83.1554 60.4703C83.115 60.3626 83.0578 60.2953 82.9838 60.2684C82.9098 60.2415 82.8021 60.228 82.6608 60.228H77.1799V58.8855H83.2765C83.6736 58.8855 84.0067 58.9865 84.2758 59.1884C84.5517 59.3902 84.6897 59.7334 84.6897 60.2179V61.5806C84.6897 61.7892 84.6493 61.9507 84.5685 62.0651C84.9858 62.2535 85.1944 62.5698 85.1944 63.0139V64.8005C85.1742 65.5676 84.73 65.9512 83.862 65.9512H77.1799V60.985H78.6637ZM83.1756 64.6087C83.3708 64.6087 83.5121 64.5616 83.5995 64.4674C83.687 64.3732 83.7308 64.1713 83.7308 63.8618C83.7308 63.5388 83.6837 63.3201 83.5895 63.2057C83.502 63.0845 83.3607 63.024 83.1655 63.024H78.6637V64.6087H83.1756ZM92.1441 60.9043V64.2655C92.1373 64.5818 92.06 64.8678 91.9119 65.1235C91.7639 65.3792 91.5654 65.5811 91.3164 65.7291C91.0674 65.8772 90.7848 65.9512 90.4685 65.9512H87.4707C87.1544 65.9512 86.8718 65.8772 86.6228 65.7291C86.3738 65.5811 86.1753 65.3792 86.0273 65.1235C85.8792 64.8678 85.8018 64.5818 85.7951 64.2655V60.9043H87.2688V63.8214C87.2688 64.0502 87.3092 64.2386 87.3899 64.3866C87.4774 64.5347 87.6389 64.6087 87.8744 64.6087H90.0648C90.3003 64.6087 90.4584 64.5347 90.5392 64.3866C90.6266 64.2386 90.6704 64.0502 90.6704 63.8214V60.9043H92.1441ZM94.228 60.2987H92.7543V58.8855H94.228V60.2987ZM92.7543 65.9512V60.9043H94.228V65.9512H92.7543ZM94.8341 65.9512V58.3809H96.3078V65.9512H94.8341ZM103.263 58.3809V63.9324H101.789V62.2569H98.9529C98.7309 62.2569 98.5795 62.3342 98.4987 62.489C98.418 62.6371 98.381 62.8423 98.3877 63.1047V63.8214C98.3877 64.0502 98.4281 64.2386 98.5088 64.3866C98.5963 64.5347 98.7578 64.6087 98.9933 64.6087H103.263V65.9512H98.5896C98.2733 65.9512 97.9907 65.8772 97.7417 65.7291C97.4927 65.5811 97.2942 65.3792 97.1462 65.1235C96.9981 64.8678 96.9207 64.5818 96.914 64.2655V62.3376C96.9207 62.055 97.0015 61.806 97.1562 61.5907C97.3177 61.3686 97.5196 61.2004 97.7619 61.086C98.0109 60.9716 98.2632 60.9144 98.5189 60.9144H101.789V58.3809H103.263ZM105.347 60.2987H103.873V58.8855H105.347V60.2987ZM103.873 65.9512V60.9043H105.347V65.9512H103.873ZM105.953 65.9512V60.9043H107.427V65.9512H105.953ZM110.828 63.0341C110.828 62.7986 110.785 62.6101 110.697 62.4688C110.616 62.3208 110.458 62.2468 110.223 62.2468H108.103V60.9043H110.626C110.943 60.9043 111.225 60.9783 111.474 61.1264C111.723 61.2744 111.922 61.4763 112.07 61.732C112.218 61.9877 112.295 62.2737 112.302 62.59V65.9512H110.828V63.0341ZM119.261 60.9043V66.2843C119.261 66.6005 119.187 66.8865 119.039 67.1422C118.898 67.3979 118.699 67.5998 118.444 67.7479C118.188 67.8959 117.902 67.9699 117.586 67.9699H114.992V66.6275H117.182C117.417 66.6275 117.576 66.5534 117.656 66.4054C117.744 66.2641 117.787 66.0757 117.787 65.8401V62.2468H114.951C114.561 62.2468 114.372 62.4957 114.386 62.9937V63.8214C114.386 64.0502 114.426 64.2386 114.507 64.3866C114.594 64.5347 114.756 64.6087 114.992 64.6087H117.111V65.9512H114.588C114.271 65.9512 113.989 65.8772 113.74 65.7291C113.491 65.5811 113.292 65.3792 113.144 65.1235C112.996 64.8678 112.919 64.5818 112.912 64.2655V62.3275C112.919 62.0449 113 61.7959 113.154 61.5806C113.316 61.3585 113.518 61.1903 113.76 61.0759C114.009 60.9615 114.261 60.9043 114.517 60.9043H119.261ZM121.892 58.8855H129.896V60.3693H121.892V58.8855ZM125.162 61.1264H126.636V65.9512H125.162V61.1264ZM131.534 63.0442L134.198 62.6C134.198 62.4924 134.151 62.4083 134.057 62.3477C133.963 62.2871 133.842 62.2569 133.694 62.2569H131.422C131.2 62.2569 131.049 62.3342 130.968 62.489C130.888 62.6371 130.851 62.8423 130.857 63.1047V63.8214C130.857 64.0502 130.898 64.2386 130.978 64.3866C131.066 64.5347 131.227 64.6087 131.463 64.6087H134.996V65.9512H131.059C130.743 65.9512 130.46 65.8772 130.211 65.7291C129.962 65.5811 129.764 65.3792 129.616 65.1235C129.468 64.8678 129.39 64.5818 129.384 64.2655V62.3376C129.39 62.055 129.471 61.806 129.626 61.5907C129.787 61.3686 129.989 61.2004 130.231 61.086C130.48 60.9716 130.733 60.9144 130.988 60.9144H134.128C134.383 60.9144 134.632 60.9716 134.875 61.086C135.124 61.2004 135.325 61.3686 135.48 61.5907C135.642 61.806 135.726 62.055 135.733 62.3376L135.743 62.6101C135.743 63.2427 135.45 63.596 134.864 63.67L131.534 64.1747V63.0442ZM138.382 62.2569C138.16 62.2569 138.008 62.3342 137.927 62.489C137.847 62.6371 137.81 62.8423 137.816 63.1047V63.8214C137.816 64.0502 137.857 64.2386 137.938 64.3866C138.025 64.5347 138.187 64.6087 138.422 64.6087H140.612C140.848 64.6087 141.006 64.5347 141.087 64.3866C141.174 64.2386 141.218 64.0502 141.218 63.8214H142.692V64.2655C142.685 64.5818 142.608 64.8678 142.46 65.1235C142.311 65.3792 142.113 65.5811 141.864 65.7291C141.615 65.8772 141.332 65.9512 141.016 65.9512H138.018C137.702 65.9512 137.419 65.8772 137.17 65.7291C136.921 65.5811 136.723 65.3792 136.575 65.1235C136.427 64.8678 136.349 64.5818 136.343 64.2655V62.3376C136.349 62.055 136.43 61.806 136.585 61.5907C136.746 61.3686 136.948 61.2004 137.191 61.086C137.44 60.9716 137.692 60.9144 137.948 60.9144H141.087C141.342 60.9144 141.591 60.9716 141.834 61.086C142.083 61.2004 142.285 61.3686 142.439 61.5907C142.601 61.806 142.685 62.055 142.692 62.3376V62.9533H141.218C141.205 62.7313 141.154 62.5597 141.067 62.4385C140.986 62.3174 140.848 62.2569 140.653 62.2569H138.382ZM143.302 65.9512V58.3809H144.776V65.9512H143.302ZM148.177 63.0341C148.177 62.7986 148.133 62.6101 148.046 62.4688C147.965 62.3208 147.807 62.2468 147.572 62.2468H145.452V60.9043H147.975C148.292 60.9043 148.574 60.9783 148.823 61.1264C149.072 61.2744 149.271 61.4763 149.419 61.732C149.567 61.9877 149.644 62.2737 149.651 62.59V65.9512H148.177V63.0341ZM150.261 65.9512V60.9043H151.735V65.9512H150.261ZM155.136 63.0341C155.136 62.7986 155.093 62.6101 155.005 62.4688C154.924 62.3208 154.766 62.2468 154.531 62.2468H152.411V60.9043H154.934C155.251 60.9043 155.533 60.9783 155.782 61.1264C156.031 61.2744 156.23 61.4763 156.378 61.732C156.526 61.9877 156.603 62.2737 156.61 62.59V65.9512H155.136V63.0341ZM161.964 60.9144C162.22 60.9144 162.469 60.9716 162.711 61.086C162.96 61.2004 163.162 61.3686 163.317 61.5907C163.478 61.806 163.562 62.055 163.569 62.3376V64.2655C163.562 64.5818 163.485 64.8678 163.337 65.1235C163.189 65.3792 162.99 65.5811 162.742 65.7291C162.493 65.8772 162.21 65.9512 161.894 65.9512H158.896C158.58 65.9512 158.297 65.8772 158.048 65.7291C157.799 65.5811 157.6 65.3792 157.452 65.1235C157.304 64.8678 157.227 64.5818 157.22 64.2655V62.9331H158.694V63.1047V63.8214C158.694 64.0502 158.734 64.2386 158.815 64.3866C158.903 64.5347 159.064 64.6087 159.3 64.6087H161.49C161.725 64.6087 161.884 64.5347 161.964 64.3866C162.052 64.2386 162.096 64.0502 162.096 63.8214V63.1047C162.102 62.8423 162.065 62.6371 161.984 62.489C161.904 62.3342 161.752 62.2569 161.53 62.2569H157.22C157.24 61.9877 157.331 61.7522 157.493 61.5503C157.654 61.3417 157.856 61.1836 158.098 61.0759C158.341 60.9682 158.583 60.9144 158.825 60.9144H161.964ZM164.179 65.9512V58.3809H165.653V65.9512H164.179ZM171.003 60.9144C171.259 60.9144 171.508 60.9716 171.75 61.086C171.999 61.2004 172.201 61.3686 172.356 61.5907C172.517 61.806 172.602 62.055 172.608 62.3376V64.2655C172.602 64.5818 172.524 64.8678 172.376 65.1235C172.228 65.3792 172.03 65.5811 171.781 65.7291C171.532 65.8772 171.249 65.9512 170.933 65.9512H167.935C167.619 65.9512 167.336 65.8772 167.087 65.7291C166.838 65.5811 166.639 65.3792 166.491 65.1235C166.343 64.8678 166.266 64.5818 166.259 64.2655V62.9331H167.733V63.1047V63.8214C167.733 64.0502 167.773 64.2386 167.854 64.3866C167.942 64.5347 168.103 64.6087 168.339 64.6087H170.529C170.764 64.6087 170.923 64.5347 171.003 64.3866C171.091 64.2386 171.135 64.0502 171.135 63.8214V63.1047C171.141 62.8423 171.104 62.6371 171.024 62.489C170.943 62.3342 170.791 62.2569 170.569 62.2569H166.259C166.279 61.9877 166.37 61.7522 166.532 61.5503C166.693 61.3417 166.895 61.1836 167.137 61.0759C167.38 60.9682 167.622 60.9144 167.864 60.9144H171.003ZM179.567 60.9043V66.2843C179.567 66.6005 179.493 66.8865 179.345 67.1422C179.204 67.3979 179.006 67.5998 178.75 67.7479C178.494 67.8959 178.208 67.9699 177.892 67.9699H175.298V66.6275H177.488C177.724 66.6275 177.882 66.5534 177.963 66.4054C178.05 66.2641 178.094 66.0757 178.094 65.8401V62.2468H175.257C174.867 62.2468 174.679 62.4957 174.692 62.9937V63.8214C174.692 64.0502 174.733 64.2386 174.813 64.3866C174.901 64.5347 175.062 64.6087 175.298 64.6087H177.417V65.9512H174.894C174.578 65.9512 174.295 65.8772 174.046 65.7291C173.797 65.5811 173.599 65.3792 173.451 65.1235C173.303 64.8678 173.225 64.5818 173.218 64.2655V62.3275C173.225 62.0449 173.306 61.7959 173.461 61.5806C173.622 61.3585 173.824 61.1903 174.066 61.0759C174.315 60.9615 174.568 60.9043 174.823 60.9043H179.567ZM184.962 60.9043H186.527L182.408 67.9699H180.844L182.57 65.0125L180.178 60.9043H181.783L183.367 63.6296L184.962 60.9043ZM195.991 62.9735H195.618V63.0543V64.2655C195.618 64.5818 195.543 64.8678 195.395 65.1235C195.254 65.3792 195.056 65.5811 194.8 65.7291C194.544 65.8772 194.258 65.9512 193.942 65.9512H190.833C190.517 65.9512 190.231 65.8772 189.975 65.7291C189.719 65.5811 189.518 65.3792 189.369 65.1235C189.228 64.8678 189.158 64.5818 189.158 64.2655V63.0543C189.158 62.7784 189.232 62.5361 189.38 62.3275C189.534 62.1122 189.733 61.944 189.975 61.8228C189.827 61.621 189.753 61.3955 189.753 61.1465V60.5712C189.753 60.2549 189.824 59.9689 189.965 59.7132C190.113 59.4575 190.315 59.2556 190.571 59.1076C190.826 58.9596 191.112 58.8855 191.429 58.8855H193.104V58.6736H194.447V60.5106H193.104V60.228H191.701C191.499 60.228 191.368 60.2818 191.307 60.3895C191.254 60.4905 191.227 60.6385 191.227 60.8336C191.227 61.0624 191.237 61.2307 191.257 61.3383C191.277 61.4393 191.328 61.5133 191.408 61.5604C191.489 61.6075 191.617 61.631 191.792 61.631H192.024V62.9735H191.196C190.981 62.9735 190.833 63.0475 190.752 63.1956C190.672 63.3436 190.631 63.5522 190.631 63.8214C190.631 64.0502 190.672 64.2386 190.752 64.3866C190.84 64.5347 191.001 64.6087 191.237 64.6087H193.538C193.774 64.6087 193.932 64.5347 194.013 64.3866C194.1 64.2386 194.144 64.0502 194.144 63.8214C194.144 63.5522 194.103 63.3436 194.023 63.1956C193.942 63.0475 193.794 62.9735 193.579 62.9735H193.023V61.631H195.991V62.9735ZM200.225 65.9512C199.97 65.9512 199.721 65.894 199.478 65.7796C199.236 65.6652 199.034 65.5003 198.873 65.285C198.711 65.0629 198.627 64.8106 198.62 64.528V63.8113V60.3088C198.627 60.0261 198.711 59.7772 198.873 59.5618C199.034 59.3398 199.236 59.1715 199.478 59.0571C199.721 58.9427 199.97 58.8855 200.225 58.8855H205.212C205.602 58.8855 205.935 58.9865 206.211 59.1884C206.487 59.3902 206.625 59.7334 206.625 60.2179V61.3181H205.212V60.8336C205.205 60.6452 205.181 60.5106 205.141 60.4299C205.101 60.3424 205.047 60.2886 204.979 60.2684C204.919 60.2415 204.821 60.228 204.687 60.228H200.568C200.42 60.2415 200.309 60.2852 200.235 60.3592C200.161 60.4333 200.118 60.5746 200.104 60.7832C200.104 62.1492 200.101 63.1754 200.094 63.8618C200.094 64.1713 200.138 64.3732 200.225 64.4674C200.313 64.5616 200.451 64.6087 200.639 64.6087H204.687C204.821 64.6087 204.919 64.5986 204.979 64.5784C205.047 64.5515 205.101 64.4977 205.141 64.4169C205.181 64.3294 205.205 64.1915 205.212 64.0031V63.3874H206.625V64.6188C206.625 65.1033 206.487 65.4465 206.211 65.6484C205.935 65.8502 205.602 65.9512 205.212 65.9512H200.225ZM211.97 60.9144C212.225 60.9144 212.474 60.9716 212.717 61.086C212.966 61.2004 213.168 61.3686 213.322 61.5907C213.484 61.806 213.568 62.055 213.575 62.3376V64.2655C213.568 64.5818 213.491 64.8678 213.343 65.1235C213.194 65.3792 212.996 65.5811 212.747 65.7291C212.498 65.8772 212.215 65.9512 211.899 65.9512H208.901C208.585 65.9512 208.302 65.8772 208.053 65.7291C207.804 65.5811 207.606 65.3792 207.458 65.1235C207.31 64.8678 207.232 64.5818 207.226 64.2655V62.9331H208.699V63.1047V63.8214C208.699 64.0502 208.74 64.2386 208.821 64.3866C208.908 64.5347 209.07 64.6087 209.305 64.6087H211.495C211.731 64.6087 211.889 64.5347 211.97 64.3866C212.057 64.2386 212.101 64.0502 212.101 63.8214V63.1047C212.108 62.8423 212.071 62.6371 211.99 62.489C211.909 62.3342 211.758 62.2569 211.536 62.2569H207.226C207.246 61.9877 207.337 61.7522 207.498 61.5503C207.66 61.3417 207.862 61.1836 208.104 61.0759C208.346 60.9682 208.588 60.9144 208.831 60.9144H211.97ZM214.185 65.9512V60.9043H215.659V65.9512H214.185ZM219.06 63.0341C219.06 62.7986 219.016 62.6101 218.929 62.4688C218.848 62.3208 218.69 62.2468 218.455 62.2468H216.335V60.9043H218.858C219.175 60.9043 219.457 60.9783 219.706 61.1264C219.955 61.2744 220.154 61.4763 220.302 61.732C220.45 61.9877 220.527 62.2737 220.534 62.59V65.9512H219.06V63.0341ZM225.797 62.812C226.161 62.812 226.47 62.886 226.726 63.0341C226.988 63.1821 227.183 63.3773 227.311 63.6195C227.446 63.8618 227.513 64.1175 227.513 64.3866C227.513 64.6558 227.449 64.9115 227.321 65.1538C227.194 65.3893 227.002 65.5811 226.746 65.7291C226.49 65.8772 226.181 65.9512 225.817 65.9512H221.164V64.6087H225.414C225.602 64.6087 225.747 64.5818 225.848 64.528C225.949 64.4674 225.999 64.3967 225.999 64.316C225.999 64.2352 225.945 64.1646 225.838 64.104C225.73 64.0435 225.582 64.0132 225.394 64.0132H222.84C222.476 64.0132 222.167 63.9392 221.911 63.7911C221.655 63.6431 221.464 63.4513 221.336 63.2158C221.208 62.9802 221.144 62.7279 221.144 62.4587C221.144 62.1896 221.208 61.9339 221.336 61.6916C221.47 61.4494 221.666 61.2542 221.921 61.1062C222.184 60.9581 222.497 60.8841 222.86 60.8841H227.14V62.2266H223.264C223.075 62.2266 222.927 62.2569 222.82 62.3174C222.712 62.378 222.658 62.4486 222.658 62.5294C222.658 62.6034 222.709 62.6707 222.81 62.7313C222.91 62.7851 223.055 62.812 223.244 62.812H225.797ZM234.472 60.9043V64.2655C234.465 64.5818 234.388 64.8678 234.24 65.1235C234.092 65.3792 233.893 65.5811 233.644 65.7291C233.395 65.8772 233.113 65.9512 232.796 65.9512H229.799C229.482 65.9512 229.2 65.8772 228.951 65.7291C228.702 65.5811 228.503 65.3792 228.355 65.1235C228.207 64.8678 228.13 64.5818 228.123 64.2655V60.9043H229.597V63.8214C229.597 64.0502 229.637 64.2386 229.718 64.3866C229.805 64.5347 229.967 64.6087 230.202 64.6087H232.393C232.628 64.6087 232.786 64.5347 232.867 64.3866C232.954 64.2386 232.998 64.0502 232.998 63.8214V60.9043H234.472ZM235.082 65.9512V58.3809H236.556V65.9512H235.082ZM239.584 64.6087V65.9512H238.838C238.521 65.9512 238.235 65.8772 237.98 65.7291C237.724 65.5811 237.522 65.3792 237.374 65.1235C237.233 64.8678 237.162 64.5818 237.162 64.2655V58.3809H238.636V60.3592H239.332V61.8329H238.636V63.8214C238.636 64.0502 238.676 64.2386 238.757 64.3866C238.844 64.5347 239.006 64.6087 239.241 64.6087H239.584ZM246.537 60.9043V65.9512H245.063V62.2468H242.227C241.837 62.2468 241.648 62.4957 241.662 62.9937V63.8214C241.662 64.0502 241.702 64.2386 241.783 64.3866C241.87 64.5347 242.032 64.6087 242.267 64.6087H244.387V65.9512H241.864C241.547 65.9512 241.265 65.8772 241.016 65.7291C240.767 65.5811 240.568 65.3792 240.42 65.1235C240.272 64.8678 240.195 64.5818 240.188 64.2655V62.3275C240.195 62.0449 240.276 61.7959 240.43 61.5806C240.592 61.3585 240.794 61.1903 241.036 61.0759C241.285 60.9615 241.537 60.9043 241.793 60.9043H246.537ZM247.147 65.9512V60.9043H248.621V65.9512H247.147ZM252.023 63.0341C252.023 62.7986 251.979 62.6101 251.891 62.4688C251.811 62.3208 251.652 62.2468 251.417 62.2468H249.297V60.9043H251.821C252.137 60.9043 252.42 60.9783 252.669 61.1264C252.918 61.2744 253.116 61.4763 253.264 61.732C253.412 61.9877 253.49 62.2737 253.496 62.59V65.9512H252.023V63.0341ZM256.529 64.6087V65.9512H255.782C255.466 65.9512 255.18 65.8772 254.924 65.7291C254.668 65.5811 254.466 65.3792 254.318 65.1235C254.177 64.8678 254.106 64.5818 254.106 64.2655V58.3809H255.58V60.3592H256.277V61.8329H255.58V63.8214C255.58 64.0502 255.621 64.2386 255.701 64.3866C255.789 64.5347 255.95 64.6087 256.186 64.6087H256.529Z" fill="white"/>
<path d="M87.5281 17.5008V22.5057L116.324 22.4331C117.678 22.4331 118.669 22.1188 119.298 21.4902C119.927 20.8132 120.241 19.4351 120.241 17.3558C120.241 15.7117 120.096 14.5269 119.806 13.8016C119.516 13.0279 119.105 12.5443 118.573 12.3509C118.041 12.1575 117.267 12.0608 116.252 12.0608H76.8657V2.41377H120.676C123.529 2.41377 125.923 3.13911 127.857 4.58979C129.84 6.04047 130.831 8.50662 130.831 11.9882V21.7803C130.831 23.2794 130.541 24.4399 129.96 25.262C132.959 26.6159 134.458 28.8886 134.458 32.0801V44.9186C134.312 50.4312 131.121 53.1875 124.883 53.1875H76.8657V17.5008H87.5281ZM119.951 43.5405C121.353 43.5405 122.369 43.202 122.997 42.525C123.626 41.848 123.94 40.3974 123.94 38.173C123.94 35.8519 123.602 34.2803 122.925 33.4583C122.296 32.5879 121.281 32.1527 119.878 32.1527H87.5281V43.5405H119.951ZM138.774 2.41377H196.294V13.0763H138.774V2.41377ZM162.275 18.5163H172.865V53.1875H162.275V18.5163ZM212.145 53.1875C210.308 53.1875 208.519 52.7765 206.778 51.9544C205.037 51.1324 203.586 49.9477 202.426 48.4003C201.265 46.8045 200.661 44.9912 200.612 42.9602V37.8103V12.6411C200.661 10.6101 201.265 8.82094 202.426 7.27355C203.586 5.6778 205.037 4.4689 206.778 3.64685C208.519 2.8248 210.308 2.41377 212.145 2.41377H247.977C250.782 2.41377 253.175 3.13911 255.158 4.58979C257.141 6.04047 258.132 8.50662 258.132 11.9882V19.8944H247.977V16.4128C247.929 15.0588 247.759 14.0917 247.469 13.5115C247.179 12.8828 246.792 12.496 246.309 12.3509C245.874 12.1575 245.172 12.0608 244.205 12.0608H214.611C213.548 12.1575 212.75 12.4718 212.218 13.0037C211.686 13.5356 211.372 14.5511 211.275 16.0501C211.275 25.8664 211.251 33.2407 211.202 38.173C211.202 40.3974 211.517 41.848 212.145 42.525C212.774 43.202 213.765 43.5405 215.119 43.5405H244.205C245.172 43.5405 245.874 43.468 246.309 43.3229C246.792 43.1295 247.179 42.7426 247.469 42.1623C247.759 41.5337 247.929 40.5424 247.977 39.1885V34.7639H258.132V43.613C258.132 47.0947 257.141 49.5608 255.158 51.0115C253.175 52.4622 250.782 53.1875 247.977 53.1875H212.145Z" fill="white"/>
<path d="M108.368 75.095L110.042 71.9425H111.418L109.005 76.2759V79.3154H107.691V76.2759L105.267 71.9425H106.695L108.368 75.095ZM117.103 76.625C117.103 78.2988 116.025 79.4284 114.505 79.4284C112.985 79.4284 111.907 78.2988 111.907 76.625C111.907 74.9512 112.985 73.8216 114.505 73.8216C116.025 73.8216 117.103 74.9512 117.103 76.625ZM113.15 76.625C113.15 77.7238 113.673 78.3912 114.505 78.3912C115.337 78.3912 115.861 77.7238 115.861 76.625C115.861 75.5263 115.337 74.8588 114.505 74.8588C113.673 74.8588 113.15 75.5263 113.15 76.625ZM122.901 73.9243V79.3154H121.669V78.7404C121.361 79.0998 120.899 79.4284 120.2 79.4284C119.071 79.4284 118.372 78.6582 118.372 77.4979V73.9243H119.605V77.2309C119.605 77.8881 119.892 78.3091 120.56 78.3091C121.114 78.3091 121.669 77.8983 121.669 77.1282V73.9243H122.901ZM124.304 79.3154V78.268H125.731V74.9717H124.304V73.9243H126.943V74.7972C127.282 74.1811 128.011 73.8216 128.76 73.8216C129.14 73.8216 129.407 73.8833 129.602 73.9654V75.1771C129.325 75.0847 129.068 75.0231 128.637 75.0231C127.805 75.0231 126.943 75.5571 126.943 76.471V78.268H128.873V79.3154H124.304ZM136.064 77.8983L137.08 77.046C137.594 77.847 138.364 78.3194 139.206 78.3194C140.038 78.3194 140.664 77.9291 140.664 77.2206C140.664 76.471 139.894 76.358 138.795 76.091C137.686 75.8241 136.495 75.5057 136.495 74.0681C136.495 72.7023 137.666 71.8295 139.155 71.8295C140.418 71.8295 141.404 72.4046 141.896 73.1747L140.941 73.9962C140.531 73.3596 139.976 72.9283 139.114 72.9283C138.323 72.9283 137.768 73.3287 137.768 73.9346C137.768 74.5815 138.343 74.7253 139.339 74.9512C140.531 75.2182 141.958 75.4852 141.958 77.0871C141.958 78.535 140.685 79.4284 139.165 79.4284C137.902 79.4284 136.639 78.8431 136.064 77.8983ZM144.562 79.4078C143.494 79.4078 142.683 78.7815 142.683 77.8162C142.683 76.7893 143.474 76.3272 144.552 76.1218L146.144 75.8138V75.7214C146.144 75.2079 145.836 74.8793 145.148 74.8793C144.542 74.8793 144.162 75.1669 144.008 75.6906L142.858 75.4133C143.135 74.5199 143.956 73.8216 145.199 73.8216C146.534 73.8216 147.345 74.4378 147.345 75.6803V78.001C147.345 78.3091 147.489 78.4015 147.838 78.3604V79.3154C146.914 79.4181 146.431 79.2435 146.236 78.802C145.877 79.1922 145.291 79.4078 144.562 79.4078ZM146.144 77.4157V76.7482L144.87 76.9947C144.336 77.0974 143.915 77.2822 143.915 77.7648C143.915 78.1859 144.244 78.422 144.737 78.422C145.425 78.422 146.144 78.0729 146.144 77.4157ZM153.636 79.3154H148.892V78.268H150.453V74.9717H148.892V73.9243H150.453C150.453 72.4456 151.479 71.8295 152.784 71.8295C153.266 71.8295 153.718 71.8911 154.047 71.963V73.0309C153.677 72.9796 153.338 72.918 152.825 72.918C152.054 72.918 151.685 73.2261 151.685 73.9243H154.047V74.9717H151.685V78.268H153.636V79.3154ZM157.739 79.4284C156.137 79.4284 155.008 78.2886 155.008 76.625C155.008 75.0436 156.127 73.8216 157.688 73.8216C159.321 73.8216 160.183 75.0026 160.183 76.4813V76.892H156.209C156.312 77.8162 156.908 78.381 157.75 78.381C158.417 78.381 158.931 78.0729 159.115 77.5184L160.152 77.9189C159.762 78.8636 158.869 79.4284 157.739 79.4284ZM157.688 74.8588C156.99 74.8588 156.466 75.2387 156.281 75.9678H158.941C158.931 75.3722 158.53 74.8588 157.688 74.8588ZM172.539 78.1653V79.3154H167.302V78.1653H169.263V73.0926H167.302V71.9425H172.539V73.0926H170.578V78.1653H172.539ZM173.839 79.3154V73.9243H175.071V74.4994C175.379 74.14 175.862 73.8216 176.56 73.8216C177.69 73.8216 178.368 74.6021 178.368 75.7624V79.3154H177.135V76.1218C177.135 75.4544 176.868 74.9717 176.191 74.9717C175.636 74.9717 175.071 75.3825 175.071 76.1527V79.3154H173.839ZM179.996 79.3154V73.9243H181.228V74.4994C181.537 74.14 182.019 73.8216 182.717 73.8216C183.847 73.8216 184.525 74.6021 184.525 75.7624V79.3154H183.292V76.1218C183.292 75.4544 183.026 74.9717 182.348 74.9717C181.793 74.9717 181.228 75.3825 181.228 76.1527V79.3154H179.996ZM190.99 76.625C190.99 78.2988 189.912 79.4284 188.392 79.4284C186.872 79.4284 185.794 78.2988 185.794 76.625C185.794 74.9512 186.872 73.8216 188.392 73.8216C189.912 73.8216 190.99 74.9512 190.99 76.625ZM187.037 76.625C187.037 77.7238 187.56 78.3912 188.392 78.3912C189.224 78.3912 189.748 77.7238 189.748 76.625C189.748 75.5263 189.224 74.8588 188.392 74.8588C187.56 74.8588 187.037 75.5263 187.037 76.625ZM195.165 79.3154H193.923L191.746 73.9243H193.04L194.56 77.8675L196.069 73.9243H197.342L195.165 79.3154ZM199.977 79.4078C198.91 79.4078 198.098 78.7815 198.098 77.8162C198.098 76.7893 198.889 76.3272 199.967 76.1218L201.559 75.8138V75.7214C201.559 75.2079 201.251 74.8793 200.563 74.8793C199.957 74.8793 199.577 75.1669 199.423 75.6906L198.273 75.4133C198.55 74.5199 199.372 73.8216 200.614 73.8216C201.949 73.8216 202.76 74.4378 202.76 75.6803V78.001C202.76 78.3091 202.904 78.4015 203.253 78.3604V79.3154C202.329 79.4181 201.846 79.2435 201.651 78.802C201.292 79.1922 200.707 79.4078 199.977 79.4078ZM201.559 77.4157V76.7482L200.286 76.9947C199.752 77.0974 199.331 77.2822 199.331 77.7648C199.331 78.1859 199.659 78.422 200.152 78.422C200.84 78.422 201.559 78.0729 201.559 77.4157ZM205.58 77.4671V74.9717H204.122V73.9243H205.58V72.3429H206.792V73.9243H209.267V74.9717H206.792V77.3541C206.792 78.0524 207.172 78.2783 207.993 78.2783C208.445 78.2783 208.866 78.2064 209.246 78.1037V79.2025C208.887 79.3052 208.312 79.3873 207.767 79.3873C206.617 79.3873 205.58 78.9149 205.58 77.4671ZM212.559 73.2055V71.9425H213.832V73.2055H212.559ZM210.752 79.3154V78.268H212.579V74.9717H210.752V73.9243H213.812V78.268H215.64V79.3154H210.752ZM221.776 76.625C221.776 78.2988 220.698 79.4284 219.178 79.4284C217.658 79.4284 216.58 78.2988 216.58 76.625C216.58 74.9512 217.658 73.8216 219.178 73.8216C220.698 73.8216 221.776 74.9512 221.776 76.625ZM217.823 76.625C217.823 77.7238 218.346 78.3912 219.178 78.3912C220.01 78.3912 220.534 77.7238 220.534 76.625C220.534 75.5263 220.01 74.8588 219.178 74.8588C218.346 74.8588 217.823 75.5263 217.823 76.625ZM223.097 79.3154V73.9243H224.329V74.4994C224.637 74.14 225.12 73.8216 225.818 73.8216C226.948 73.8216 227.625 74.6021 227.625 75.7624V79.3154H226.393V76.1218C226.393 75.4544 226.126 74.9717 225.448 74.9717C224.894 74.9717 224.329 75.3825 224.329 76.1527V79.3154H223.097Z" fill="white"/>
<path d="M76.8771 76.2417L102.851 76.2417" stroke="white" stroke-width="1.20809" stroke-linecap="round"/>
<path d="M230.909 76.2417L256.883 76.2417" stroke="white" stroke-width="1.20809" stroke-linecap="round"/>
</svg>
