<svg width="56" height="56" viewBox="0 0 56 56" fill="none" xmlns="http://www.w3.org/2000/svg">
<circle cx="28" cy="28" r="28" fill="#F28735"/>
<path d="M30.7328 19.9998C32.0352 20.2539 33.232 20.8908 34.1703 21.8291C35.1085 22.7673 35.7454 23.9642 35.9995 25.2665M30.7328 14.6665C33.4385 14.9671 35.9616 16.1787 37.8878 18.1025C39.814 20.0263 41.0289 22.5479 41.3328 25.2532M25.6355 30.4839C24.0334 28.8818 22.7683 27.0703 21.8403 25.1375C21.7605 24.9712 21.7206 24.8881 21.6899 24.7829C21.581 24.4091 21.6592 23.9501 21.8859 23.6335C21.9497 23.5444 22.0259 23.4682 22.1783 23.3158C22.6445 22.8497 22.8775 22.6166 23.0299 22.3822C23.6046 21.4984 23.6046 20.3589 23.0299 19.4751C22.8775 19.2407 22.6445 19.0076 22.1783 18.5415L21.9185 18.2817C21.2099 17.5731 20.8556 17.2188 20.4751 17.0263C19.7184 16.6436 18.8247 16.6436 18.0679 17.0263C17.6874 17.2188 17.3331 17.5731 16.6245 18.2817L16.4144 18.4919C15.7082 19.198 15.3551 19.5511 15.0854 20.0311C14.7862 20.5638 14.5711 21.3911 14.5729 22.0021C14.5745 22.5527 14.6813 22.929 14.8949 23.6816C16.0429 27.7261 18.2089 31.5426 21.3928 34.7266C24.5768 37.9105 28.3933 40.0765 32.4378 41.2245C33.1904 41.4381 33.5667 41.5449 34.1173 41.5465C34.7283 41.5483 35.5556 41.3332 36.0883 41.034C36.5683 40.7643 36.9214 40.4112 37.6276 39.7051L37.8377 39.4949C38.5463 38.7863 38.9006 38.432 39.0931 38.0515C39.4758 37.2947 39.4758 36.401 39.0931 35.6443C38.9006 35.2638 38.5463 34.9095 37.8377 34.2009L37.5779 33.9411C37.1118 33.4749 36.8787 33.2419 36.6443 33.0895C35.7605 32.5148 34.621 32.5148 33.7372 33.0895C33.5028 33.2419 33.2697 33.4749 32.8036 33.9411C32.6512 34.0935 32.575 34.1697 32.4859 34.2335C32.1693 34.4602 31.7103 34.5384 31.3365 34.4295C31.2313 34.3988 31.1482 34.3589 30.9819 34.2791C29.0491 33.3511 27.2376 32.086 25.6355 30.4839Z" stroke="#171717" stroke-width="2" stroke-linecap="round" stroke-linejoin="round"/>
</svg>
