<svg width="40" height="40" viewBox="0 0 40 40" fill="none" xmlns="http://www.w3.org/2000/svg">
<path d="M21.6667 18.3333H29.6667C31.5335 18.3333 32.467 18.3333 33.18 18.6966C33.8072 19.0162 34.3172 19.5262 34.6367 20.1534C35 20.8664 35 21.7998 35 23.6667V35M21.6667 35V10.3333C21.6667 8.46649 21.6667 7.53307 21.3034 6.82003C20.9838 6.19282 20.4739 5.68289 19.8467 5.36331C19.1336 5 18.2002 5 16.3334 5H10.3334C8.46653 5 7.53311 5 6.82007 5.36331C6.19287 5.68289 5.68293 6.19282 5.36335 6.82003C5.00004 7.53307 5.00004 8.46649 5.00004 10.3333V35M36.6667 35H3.33337M10.8334 11.6667H15.8334M10.8334 18.3333H15.8334M10.8334 25H15.8334" stroke="#171717" stroke-width="3" stroke-linecap="round" stroke-linejoin="round"/>
</svg>
