<svg width="40" height="40" viewBox="0 0 40 40" fill="none" xmlns="http://www.w3.org/2000/svg">
<path d="M31.6667 7.49992C31.6667 8.27434 31.6667 8.66156 31.6026 8.98355C31.3396 10.3059 30.3059 11.3395 28.9836 11.6025C28.6616 11.6666 28.2744 11.6666 27.5 11.6666H9.16667C8.39224 11.6666 8.00503 11.6666 7.68303 11.6025C6.36073 11.3395 5.32707 10.3059 5.06405 8.98355C5 8.66156 5 8.27434 5 7.49992C5 6.72549 5 6.33828 5.06405 6.01628C5.32707 4.69398 6.36073 3.66032 7.68303 3.3973C8.00503 3.33325 8.39224 3.33325 9.16667 3.33325H27.5C28.2744 3.33325 28.6616 3.33325 28.9836 3.3973C30.3059 3.66032 31.3396 4.69398 31.6026 6.01628C31.6667 6.33828 31.6667 6.72549 31.6667 7.49992ZM31.6667 7.49992C33.2198 7.49992 33.9964 7.49992 34.6089 7.75365C35.4257 8.09197 36.0746 8.74088 36.4129 9.55764C36.6667 10.1702 36.6667 10.9468 36.6667 12.4999V12.9999C36.6667 14.8668 36.6667 15.8002 36.3034 16.5132C35.9838 17.1404 35.4738 17.6504 34.8466 17.9699C34.1336 18.3333 33.2002 18.3333 31.3333 18.3333H25.3333C23.4665 18.3333 22.5331 18.3333 21.82 18.6966C21.1928 19.0161 20.6829 19.5261 20.3633 20.1533C20 20.8663 20 21.7997 20 23.6666V24.9999M19.3333 36.6666H20.6667C21.6001 36.6666 22.0668 36.6666 22.4233 36.4849C22.7369 36.3251 22.9919 36.0702 23.1517 35.7566C23.3333 35.4 23.3333 34.9333 23.3333 33.9999V27.6666C23.3333 26.7332 23.3333 26.2665 23.1517 25.9099C22.9919 25.5963 22.7369 25.3414 22.4233 25.1816C22.0668 24.9999 21.6001 24.9999 20.6667 24.9999H19.3333C18.3999 24.9999 17.9332 24.9999 17.5767 25.1816C17.2631 25.3414 17.0081 25.5963 16.8483 25.9099C16.6667 26.2665 16.6667 26.7332 16.6667 27.6666V33.9999C16.6667 34.9333 16.6667 35.4 16.8483 35.7566C17.0081 36.0702 17.2631 36.3251 17.5767 36.4849C17.9332 36.6666 18.3999 36.6666 19.3333 36.6666Z" stroke="#171717" stroke-width="3" stroke-linecap="round" stroke-linejoin="round"/>
</svg>
